<svg xmlns="http://www.w3.org/2000/svg" width="682.91" height="226.93" viewBox="0 0 682.91 226.93"><defs><style>.cls-1{fill:#231f20;}.cls-2{fill:#a1a3a6;stroke:#a1a3a6;stroke-miterlimit:10;stroke-width:0.77px;}.cls-3{fill:#fff;}.cls-12,.cls-4,.cls-5{fill:#007dc3;}.cls-10,.cls-14,.cls-16,.cls-4,.cls-7{opacity:0.75;}.cls-11,.cls-15,.cls-5,.cls-8{opacity:0.5;}.cls-6,.cls-7,.cls-8{fill:#00a94f;}.cls-10,.cls-11,.cls-9{fill:#ffc425;}.cls-13,.cls-14,.cls-15{fill:#ef3e42;}</style></defs><title>Asset 1</title><g id="Layer_2" data-name="Layer 2"><g id="Layer_1-2" data-name="Layer 1"><path class="cls-1" d="M312.39,155.61c-3.52,1.69-11.87,3.78-22.44,3.78-30.4,0-46.06-19-46.06-44.1,0-30,21.4-46.58,48-46.58,10.3,0,18.13,2,21.66,3.91l-4.18,15.66A42,42,0,0,0,292.69,85c-15.66,0-27.92,9.52-27.92,29.09,0,17.62,10.44,28.71,28.05,28.71,6.13,0,12.65-1.17,16.7-2.87Z"/><path class="cls-1" d="M398.63,124.3c-.4-10.58-.79-23.36-.79-36.15h-.26c-2.87,11.22-6.53,23.75-9.92,34.06L377,156.52H361.44l-9.39-33.92c-2.87-10.44-5.74-23-8-34.45h-.25c-.4,11.87-.92,25.45-1.44,36.4L340.7,158H322.3L327.91,70h26.48L363,99.37c2.87,10.18,5.47,21.14,7.44,31.45H371c2.36-10.18,5.35-21.79,8.35-31.58L388.58,70h26.09l4.7,87.93H400.06Z"/><path class="cls-1" d="M433.32,71.32a176.13,176.13,0,0,1,26.75-1.95c16.83,0,27.79,3.13,36.14,9.39,9.13,6.78,14.87,17.61,14.87,33.14,0,16.83-6.13,28.44-14.48,35.62-9.26,7.69-23.49,11.35-40.7,11.35a170.94,170.94,0,0,1-22.58-1.31ZM453.15,143a37.5,37.5,0,0,0,6.92.39c18.14.13,30-9.79,30-30.79,0-18.27-10.7-27.92-27.92-27.92a42.54,42.54,0,0,0-9,.78Z"/><path class="cls-1" d="M574.87,86.72H551.12V70h67.59v16.7h-24V158H574.87Z"/><path class="cls-1" d="M522.69,158V94.16h19.83V158Z"/><path class="cls-2" d="M246.33,174.55H256v1.95h-7.35v6h6.79v1.92h-6.79v8.15h-2.35Z"/><path class="cls-2" d="M271,186c0,4.78-3.34,6.87-6.44,6.87-3.47,0-6.2-2.57-6.2-6.66,0-4.3,2.86-6.84,6.42-6.84C268.49,179.36,271,182.06,271,186Zm-10.23.13c0,2.84,1.6,5,3.9,5s3.93-2.11,3.93-5c0-2.19-1.1-4.95-3.88-4.95S260.77,183.69,260.77,186.12Z"/><path class="cls-2" d="M273.65,190.18a6.64,6.64,0,0,0,3.13.91c1.68,0,2.49-.83,2.49-1.92s-.67-1.71-2.38-2.35c-2.36-.86-3.45-2.12-3.45-3.67,0-2.08,1.71-3.79,4.46-3.79a6.08,6.08,0,0,1,3.16.8l-.56,1.71a5.05,5.05,0,0,0-2.65-.77c-1.39,0-2.14.8-2.14,1.76s.75,1.55,2.43,2.22c2.22.83,3.4,1.95,3.4,3.88,0,2.29-1.79,3.9-4.81,3.9a7.44,7.44,0,0,1-3.64-.91Z"/><path class="cls-2" d="M287.39,176.53v3.09h3.37v1.8h-3.37v7c0,1.61.46,2.52,1.77,2.52a4.61,4.61,0,0,0,1.36-.16l.11,1.79a6.48,6.48,0,0,1-2.09.32,3.4,3.4,0,0,1-2.54-1,5.07,5.07,0,0,1-.9-3.4v-7.05h-2v-1.8h2v-2.4Z"/><path class="cls-2" d="M294.72,186.52c0,3.19,2.06,4.49,4.44,4.49a8.52,8.52,0,0,0,3.58-.66l.43,1.68a10.66,10.66,0,0,1-4.34.83c-4,0-6.36-2.65-6.36-6.55s2.3-6.95,6.07-6.95c4.25,0,5.35,3.69,5.35,6.07a6,6,0,0,1-.08,1.09Zm6.89-1.68c0-1.47-.61-3.8-3.25-3.8-2.41,0-3.43,2.17-3.62,3.8Z"/><path class="cls-2" d="M306.8,183.66c0-1.52,0-2.83-.11-4h2.06l.11,2.57h.08a3.91,3.91,0,0,1,3.61-2.83,4.26,4.26,0,0,1,.64,0v2.22a3.89,3.89,0,0,0-.8,0,3.28,3.28,0,0,0-3.16,3,7.63,7.63,0,0,0-.07,1.1v6.89H306.8Z"/><path class="cls-2" d="M318.16,176a1.46,1.46,0,0,1-2.91,0,1.44,1.44,0,0,1,1.47-1.47A1.41,1.41,0,0,1,318.16,176Zm-2.62,16.57V179.62h2.36v12.94Z"/><path class="cls-2" d="M321.8,183.13c0-1.36,0-2.43-.11-3.51h2.09l.14,2.15H324a4.76,4.76,0,0,1,4.27-2.41c1.8,0,4.57,1.07,4.57,5.51v7.69h-2.35v-7.45c0-2.09-.77-3.83-3-3.83a3.4,3.4,0,0,0-3.16,2.41,3.53,3.53,0,0,0-.16,1.09v7.78H321.8Z"/><path class="cls-2" d="M347.71,190.66c0,3-.62,4.79-1.85,5.94a7.1,7.1,0,0,1-4.73,1.55,8.28,8.28,0,0,1-4.3-1.07l.58-1.82a7,7,0,0,0,3.8,1.05c2.4,0,4.17-1.26,4.17-4.55v-1.41h-.05a4.61,4.61,0,0,1-4.12,2.16c-3.21,0-5.51-2.73-5.51-6.31,0-4.38,2.86-6.84,5.86-6.84a4.31,4.31,0,0,1,4,2.22h.06l.08-2h2.08c-.08.92-.1,2-.1,3.53Zm-2.36-5.93a3,3,0,0,0-.13-1,3.36,3.36,0,0,0-3.29-2.51c-2.24,0-3.85,1.89-3.85,4.89,0,2.54,1.31,4.65,3.83,4.65a3.41,3.41,0,0,0,3.26-2.41,4.16,4.16,0,0,0,.18-1.25Z"/><path class="cls-2" d="M359.65,174.55v18H357.3v-18Z"/><path class="cls-2" d="M363.64,183.13c0-1.36,0-2.43-.11-3.51h2.09l.13,2.15h.05a4.79,4.79,0,0,1,4.28-2.41c1.79,0,4.57,1.07,4.57,5.51v7.69H372.3v-7.45c0-2.09-.77-3.83-3-3.83a3.4,3.4,0,0,0-3.16,2.41,3.25,3.25,0,0,0-.16,1.09v7.78h-2.35Z"/><path class="cls-2" d="M378.48,183.13c0-1.36,0-2.43-.11-3.51h2.09l.13,2.15h.05a4.79,4.79,0,0,1,4.28-2.41c1.79,0,4.57,1.07,4.57,5.51v7.69h-2.35v-7.45c0-2.09-.77-3.83-3-3.83a3.4,3.4,0,0,0-3.15,2.41,3.25,3.25,0,0,0-.16,1.09v7.78h-2.35Z"/><path class="cls-2" d="M405,186c0,4.78-3.34,6.87-6.44,6.87-3.47,0-6.2-2.57-6.2-6.66,0-4.3,2.86-6.84,6.42-6.84S405,182.06,405,186Zm-10.24.13c0,2.84,1.61,5,3.91,5s3.93-2.11,3.93-5c0-2.19-1.1-4.95-3.88-4.95S394.78,183.69,394.78,186.12Z"/><path class="cls-2" d="M408.9,179.62l2.54,7.25a33,33,0,0,1,1,3.34h.08c.3-1.07.67-2.14,1.1-3.34l2.51-7.25h2.46l-5.08,12.94h-2.24l-4.92-12.94Z"/><path class="cls-2" d="M429.94,189.46a22.22,22.22,0,0,0,.19,3.1H428l-.18-1.63h-.08a4.82,4.82,0,0,1-4,1.93,3.68,3.68,0,0,1-4-3.72c0-3.13,2.77-4.83,7.77-4.81v-.27a2.64,2.64,0,0,0-2.94-3,6.2,6.2,0,0,0-3.39,1l-.53-1.58a8.31,8.31,0,0,1,4.27-1.12c4,0,4.92,2.7,4.92,5.27Zm-2.27-3.5c-2.57-.05-5.48.4-5.48,2.92a2.06,2.06,0,0,0,2.19,2.24,3.26,3.26,0,0,0,3.18-2.16,2.72,2.72,0,0,0,.11-.75Z"/><path class="cls-2" d="M436.57,176.53v3.09h3.37v1.8h-3.37v7c0,1.61.46,2.52,1.76,2.52a4.69,4.69,0,0,0,1.37-.16l.11,1.79a6.48,6.48,0,0,1-2.09.32,3.37,3.37,0,0,1-2.54-1,5.06,5.06,0,0,1-.91-3.4v-7.05h-2v-1.8h2v-2.4Z"/><path class="cls-2" d="M445.21,176a1.4,1.4,0,0,1-1.5,1.44,1.38,1.38,0,0,1-1.42-1.44,1.44,1.44,0,0,1,1.47-1.47A1.41,1.41,0,0,1,445.21,176Zm-2.62,16.57V179.62h2.35v12.94Z"/><path class="cls-2" d="M460.55,186c0,4.78-3.34,6.87-6.44,6.87-3.48,0-6.2-2.57-6.2-6.66,0-4.3,2.86-6.84,6.41-6.84C458,179.36,460.55,182.06,460.55,186Zm-10.24.13c0,2.84,1.61,5,3.9,5s3.93-2.11,3.93-5c0-2.19-1.09-4.95-3.88-4.95S450.31,183.69,450.31,186.12Z"/><path class="cls-2" d="M463.52,183.13c0-1.36,0-2.43-.11-3.51h2.09l.13,2.15h.06a4.78,4.78,0,0,1,4.27-2.41c1.79,0,4.58,1.07,4.58,5.51v7.69h-2.36v-7.45c0-2.09-.78-3.83-3-3.83a3.4,3.4,0,0,0-3.16,2.41,3.53,3.53,0,0,0-.16,1.09v7.78h-2.35Z"/><path class="cls-2" d="M487.53,176.53h-5.48v-2h13.34v2h-5.51v16h-2.35Z"/><path class="cls-2" d="M497.31,173.58h2.36v8.1h.05A4.37,4.37,0,0,1,501.4,180a4.87,4.87,0,0,1,2.41-.64c1.74,0,4.52,1.07,4.52,5.51v7.69H506v-7.43c0-2.08-.77-3.82-3-3.82a3.41,3.41,0,0,0-3.15,2.33,2.84,2.84,0,0,0-.16,1.12v7.8h-2.36Z"/><path class="cls-2" d="M512.15,183.66c0-1.52,0-2.83-.11-4h2.06l.11,2.57h.08a3.91,3.91,0,0,1,3.61-2.83,4.26,4.26,0,0,1,.64,0v2.22a3.89,3.89,0,0,0-.8,0,3.28,3.28,0,0,0-3.16,3,7.58,7.58,0,0,0-.08,1.1v6.89h-2.35Z"/><path class="cls-2" d="M532.6,186c0,4.78-3.34,6.87-6.44,6.87-3.48,0-6.2-2.57-6.2-6.66,0-4.3,2.86-6.84,6.41-6.84C530.09,179.36,532.6,182.06,532.6,186Zm-10.24.13c0,2.84,1.6,5,3.91,5s3.93-2.11,3.93-5c0-2.19-1.1-4.95-3.88-4.95S522.36,183.69,522.36,186.12Z"/><path class="cls-2" d="M546.4,189c0,1.36,0,2.54.1,3.55h-2.08l-.13-2.11h-.06a4.83,4.83,0,0,1-4.28,2.41c-2,0-4.46-1.15-4.46-5.67v-7.57h2.35v7.14c0,2.46.78,4.15,2.89,4.15a3.4,3.4,0,0,0,3.1-2.17,3.3,3.3,0,0,0,.21-1.2v-7.92h2.36Z"/><path class="cls-2" d="M561.37,190.66c0,3-.62,4.79-1.85,5.94a7.1,7.1,0,0,1-4.73,1.55,8.28,8.28,0,0,1-4.3-1.07l.58-1.82a7,7,0,0,0,3.8,1.05c2.41,0,4.17-1.26,4.17-4.55v-1.41h0a4.59,4.59,0,0,1-4.12,2.16c-3.21,0-5.51-2.73-5.51-6.31,0-4.38,2.87-6.84,5.86-6.84a4.31,4.31,0,0,1,4,2.22h.06l.08-2h2.08c-.08.92-.1,2-.1,3.53ZM559,184.73a3,3,0,0,0-.13-1,3.36,3.36,0,0,0-3.29-2.51c-2.24,0-3.84,1.89-3.84,4.89,0,2.54,1.31,4.65,3.82,4.65a3.4,3.4,0,0,0,3.26-2.41,4.16,4.16,0,0,0,.18-1.25Z"/><path class="cls-2" d="M565.24,173.58h2.36v8.1h0a4.44,4.44,0,0,1,1.68-1.68,4.87,4.87,0,0,1,2.41-.64c1.74,0,4.52,1.07,4.52,5.51v7.69h-2.35v-7.43c0-2.08-.78-3.82-3-3.82a3.41,3.41,0,0,0-3.15,2.33,2.84,2.84,0,0,0-.16,1.12v7.8h-2.36Z"/><path class="cls-2" d="M588.16,174.55v18H585.8v-18Z"/><path class="cls-2" d="M592.14,183.13c0-1.36,0-2.43-.11-3.51h2.09l.13,2.15h0a4.78,4.78,0,0,1,4.28-2.41c1.8,0,4.57,1.07,4.57,5.51v7.69H600.8v-7.45c0-2.09-.77-3.83-3-3.83a3.4,3.4,0,0,0-3.16,2.41,3.53,3.53,0,0,0-.16,1.09v7.78h-2.35Z"/><path class="cls-2" d="M616.2,192.11a9.15,9.15,0,0,1-3.72.75c-3.9,0-6.44-2.65-6.44-6.61a6.59,6.59,0,0,1,7-6.89,7.51,7.51,0,0,1,3.26.69l-.53,1.8a5.67,5.67,0,0,0-2.73-.62c-3,0-4.57,2.22-4.57,4.89,0,3,1.92,4.84,4.49,4.84a6.81,6.81,0,0,0,2.89-.61Z"/><path class="cls-2" d="M619,173.58h2.34v19H619Z"/><path class="cls-2" d="M636.09,189c0,1.36,0,2.54.11,3.55h-2.09l-.13-2.11h-.06a4.81,4.81,0,0,1-4.27,2.41c-2,0-4.46-1.15-4.46-5.67v-7.57h2.35v7.14c0,2.46.77,4.15,2.88,4.15a3.37,3.37,0,0,0,3.1-2.17,3.1,3.1,0,0,0,.22-1.2v-7.92h2.35Z"/><path class="cls-2" d="M639.67,190.18a6.68,6.68,0,0,0,3.13.91c1.69,0,2.49-.83,2.49-1.92s-.67-1.71-2.38-2.35c-2.35-.86-3.45-2.12-3.45-3.67,0-2.08,1.71-3.79,4.47-3.79a6,6,0,0,1,3.15.8l-.56,1.71a5.05,5.05,0,0,0-2.65-.77c-1.39,0-2.14.8-2.14,1.76s.75,1.55,2.44,2.22c2.21.83,3.39,1.95,3.39,3.88,0,2.29-1.79,3.9-4.81,3.9a7.44,7.44,0,0,1-3.64-.91Z"/><path class="cls-2" d="M653.2,176a1.4,1.4,0,0,1-1.49,1.44,1.38,1.38,0,0,1-1.42-1.44,1.44,1.44,0,0,1,1.47-1.47A1.41,1.41,0,0,1,653.2,176Zm-2.62,16.57V179.62h2.35v12.94Z"/><path class="cls-2" d="M668.54,186c0,4.78-3.34,6.87-6.44,6.87-3.47,0-6.2-2.57-6.2-6.66,0-4.3,2.86-6.84,6.42-6.84C666,179.36,668.54,182.06,668.54,186Zm-10.23.13c0,2.84,1.6,5,3.9,5s3.93-2.11,3.93-5c0-2.19-1.09-4.95-3.88-4.95S658.31,183.69,658.31,186.12Z"/><path class="cls-2" d="M671.52,183.13c0-1.36,0-2.43-.11-3.51h2.08l.13,2.15h.06a4.78,4.78,0,0,1,4.28-2.41c1.79,0,4.57,1.07,4.57,5.51v7.69h-2.36v-7.45c0-2.09-.77-3.83-3-3.83a3.39,3.39,0,0,0-3.15,2.41,3.25,3.25,0,0,0-.16,1.09v7.78h-2.35Z"/><path class="cls-3" d="M137.8,75.24a11.94,11.94,0,1,1-16.53,3.43A11.95,11.95,0,0,1,137.8,75.24Z"/><path class="cls-3" d="M152,53.63a9.55,9.55,0,1,1-13.22,2.74A9.56,9.56,0,0,1,152,53.63Z"/><path class="cls-3" d="M164.66,35.82A7.64,7.64,0,1,1,154.09,38,7.63,7.63,0,0,1,164.66,35.82Z"/><path class="cls-3" d="M174.73,19a6.11,6.11,0,1,1-8.46,1.75A6.11,6.11,0,0,1,174.73,19Z"/><path class="cls-3" d="M155.38,91.5a11.93,11.93,0,1,1-16.12-5A11.92,11.92,0,0,1,155.38,91.5Z"/><path class="cls-3" d="M178.26,79.45a9.55,9.55,0,1,1-12.9-4A9.54,9.54,0,0,1,178.26,79.45Z"/><path class="cls-3" d="M198,70a7.64,7.64,0,1,1-10.31-3.19A7.64,7.64,0,0,1,198,70Z"/><path class="cls-3" d="M214.93,60.12a6.11,6.11,0,1,1-8.26-2.55A6.13,6.13,0,0,1,214.93,60.12Z"/><path class="cls-3" d="M159.94,113.33A11.94,11.94,0,1,1,148,101.39,11.94,11.94,0,0,1,159.94,113.33Z"/><path class="cls-3" d="M185.79,113.33a9.55,9.55,0,1,1-9.54-9.55A9.55,9.55,0,0,1,185.79,113.33Z"/><path class="cls-3" d="M207.63,114.15a7.64,7.64,0,1,1-7.63-7.64A7.64,7.64,0,0,1,207.63,114.15Z"/><path class="cls-3" d="M227.24,113.33a6.11,6.11,0,1,1-6.11-6.11A6.12,6.12,0,0,1,227.24,113.33Z"/><path class="cls-3" d="M152,137.78a11.94,11.94,0,1,1-3.43-16.53A11.95,11.95,0,0,1,152,137.78Z"/><path class="cls-3" d="M173.66,152a9.55,9.55,0,1,1-2.75-13.22A9.55,9.55,0,0,1,173.66,152Z"/><path class="cls-3" d="M191.46,164.64a7.64,7.64,0,1,1-2.19-10.58A7.63,7.63,0,0,1,191.46,164.64Z"/><path class="cls-3" d="M208.31,174.71a6.11,6.11,0,1,1-1.76-8.46A6.12,6.12,0,0,1,208.31,174.71Z"/><path class="cls-3" d="M135.78,155.36a11.93,11.93,0,1,1,5-16.12A11.93,11.93,0,0,1,135.78,155.36Z"/><path class="cls-3" d="M147.84,178.24a9.55,9.55,0,1,1,4-12.9A9.55,9.55,0,0,1,147.84,178.24Z"/><path class="cls-3" d="M157.29,197.94a7.64,7.64,0,1,1,3.2-10.31A7.62,7.62,0,0,1,157.29,197.94Z"/><path class="cls-3" d="M167.16,214.9a6.11,6.11,0,1,1,2.56-8.25A6.1,6.1,0,0,1,167.16,214.9Z"/><path class="cls-3" d="M114.15,159.63a11.94,11.94,0,1,1,11.93-11.94A11.95,11.95,0,0,1,114.15,159.63Z"/><path class="cls-3" d="M114.15,185.48a9.55,9.55,0,1,1,9.54-9.54A9.55,9.55,0,0,1,114.15,185.48Z"/><path class="cls-3" d="M113.33,207.32a7.64,7.64,0,1,1,7.63-7.64A7.64,7.64,0,0,1,113.33,207.32Z"/><path class="cls-3" d="M114.15,226.93a6.11,6.11,0,1,1,6.11-6.11A6.1,6.1,0,0,1,114.15,226.93Z"/><path class="cls-3" d="M89.7,151.73a11.93,11.93,0,1,1,16.52-3.43A11.94,11.94,0,0,1,89.7,151.73Z"/><path class="cls-3" d="M75.51,173.35a9.55,9.55,0,1,1,13.22-2.75A9.55,9.55,0,0,1,75.51,173.35Z"/><path class="cls-3" d="M62.83,191.15A7.64,7.64,0,1,1,73.41,189,7.63,7.63,0,0,1,62.83,191.15Z"/><path class="cls-3" d="M52.76,208a6.11,6.11,0,1,1,8.47-1.76A6.11,6.11,0,0,1,52.76,208Z"/><path class="cls-3" d="M72.11,135.47a11.93,11.93,0,1,1,16.12,5A11.94,11.94,0,0,1,72.11,135.47Z"/><path class="cls-3" d="M49.24,147.53a9.55,9.55,0,1,1,12.9,4A9.55,9.55,0,0,1,49.24,147.53Z"/><path class="cls-3" d="M29.53,157a7.64,7.64,0,1,1,10.32,3.2A7.64,7.64,0,0,1,29.53,157Z"/><path class="cls-3" d="M12.57,166.85a6.11,6.11,0,1,1,8.26,2.56A6.11,6.11,0,0,1,12.57,166.85Z"/><path class="cls-3" d="M113.08,67.31a11.93,11.93,0,1,1-11.94,11.93A11.93,11.93,0,0,1,113.08,67.31Z"/><path class="cls-3" d="M113.08,41.45A9.55,9.55,0,1,1,103.53,51,9.54,9.54,0,0,1,113.08,41.45Z"/><path class="cls-3" d="M113.9,19.61a7.64,7.64,0,1,1-7.63,7.64A7.64,7.64,0,0,1,113.9,19.61Z"/><path class="cls-3" d="M113.08,0A6.11,6.11,0,1,1,107,6.11,6.11,6.11,0,0,1,113.08,0Z"/><path class="cls-3" d="M67.31,114.24a11.93,11.93,0,1,1,11.93,11.93A11.93,11.93,0,0,1,67.31,114.24Z"/><path class="cls-3" d="M41.45,114.24A9.55,9.55,0,1,1,51,123.79,9.56,9.56,0,0,1,41.45,114.24Z"/><path class="cls-3" d="M19.61,113.42a7.64,7.64,0,1,1,7.64,7.63A7.64,7.64,0,0,1,19.61,113.42Z"/><path class="cls-3" d="M0,114.24a6.11,6.11,0,1,1,6.11,6.11A6.12,6.12,0,0,1,0,114.24Z"/><path class="cls-3" d="M75.2,89.79a11.94,11.94,0,1,1,3.43,16.52A11.94,11.94,0,0,1,75.2,89.79Z"/><path class="cls-3" d="M53.59,75.6a9.55,9.55,0,1,1,2.74,13.22A9.54,9.54,0,0,1,53.59,75.6Z"/><path class="cls-3" d="M35.78,62.93A7.64,7.64,0,1,1,38,73.5,7.64,7.64,0,0,1,35.78,62.93Z"/><path class="cls-3" d="M18.94,52.86a6.11,6.11,0,1,1,1.75,8.46A6.11,6.11,0,0,1,18.94,52.86Z"/><path class="cls-3" d="M91.46,72.2a11.94,11.94,0,1,1-5,16.13A11.94,11.94,0,0,1,91.46,72.2Z"/><path class="cls-3" d="M79.4,49.33a9.55,9.55,0,1,1-4,12.9A9.55,9.55,0,0,1,79.4,49.33Z"/><path class="cls-3" d="M70,29.62a7.64,7.64,0,1,1-3.2,10.32A7.64,7.64,0,0,1,70,29.62Z"/><path class="cls-3" d="M60.08,12.66a6.11,6.11,0,1,1-2.56,8.26A6.12,6.12,0,0,1,60.08,12.66Z"/><path class="cls-4" d="M137.8,75.24a11.94,11.94,0,1,1-16.53,3.43A11.95,11.95,0,0,1,137.8,75.24Z"/><path class="cls-4" d="M152,53.63a9.55,9.55,0,1,1-13.22,2.74A9.56,9.56,0,0,1,152,53.63Z"/><path class="cls-4" d="M164.66,35.82A7.64,7.64,0,1,1,154.09,38,7.63,7.63,0,0,1,164.66,35.82Z"/><path class="cls-4" d="M174.73,19a6.11,6.11,0,1,1-8.46,1.75A6.11,6.11,0,0,1,174.73,19Z"/><path class="cls-5" d="M155.38,91.5a11.93,11.93,0,1,1-16.12-5A11.92,11.92,0,0,1,155.38,91.5Z"/><path class="cls-5" d="M178.26,79.45a9.55,9.55,0,1,1-12.9-4A9.54,9.54,0,0,1,178.26,79.45Z"/><path class="cls-5" d="M198,70a7.64,7.64,0,1,1-10.31-3.19A7.64,7.64,0,0,1,198,70Z"/><path class="cls-5" d="M214.93,60.12a6.11,6.11,0,1,1-8.26-2.55A6.13,6.13,0,0,1,214.93,60.12Z"/><path class="cls-6" d="M159.94,113.33A11.94,11.94,0,1,1,148,101.39,11.94,11.94,0,0,1,159.94,113.33Z"/><path class="cls-6" d="M185.79,113.33a9.55,9.55,0,1,1-9.54-9.55A9.54,9.54,0,0,1,185.79,113.33Z"/><path class="cls-6" d="M207.63,114.15a7.64,7.64,0,1,1-7.63-7.64A7.64,7.64,0,0,1,207.63,114.15Z"/><path class="cls-6" d="M227.24,113.33a6.11,6.11,0,1,1-6.11-6.11A6.12,6.12,0,0,1,227.24,113.33Z"/><path class="cls-7" d="M152,137.78a11.94,11.94,0,1,1-3.43-16.53A11.95,11.95,0,0,1,152,137.78Z"/><path class="cls-7" d="M173.66,152a9.55,9.55,0,1,1-2.75-13.23A9.56,9.56,0,0,1,173.66,152Z"/><path class="cls-7" d="M191.46,164.64a7.64,7.64,0,1,1-2.19-10.58A7.64,7.64,0,0,1,191.46,164.64Z"/><path class="cls-7" d="M208.31,174.71a6.11,6.11,0,1,1-1.76-8.46A6.11,6.11,0,0,1,208.31,174.71Z"/><path class="cls-8" d="M135.78,155.36a11.93,11.93,0,1,1,5-16.12A11.93,11.93,0,0,1,135.78,155.36Z"/><path class="cls-8" d="M147.84,178.24a9.55,9.55,0,1,1,4-12.9A9.55,9.55,0,0,1,147.84,178.24Z"/><path class="cls-8" d="M157.29,197.94a7.64,7.64,0,1,1,3.2-10.31A7.62,7.62,0,0,1,157.29,197.94Z"/><path class="cls-8" d="M167.16,214.9a6.11,6.11,0,1,1,2.56-8.25A6.1,6.1,0,0,1,167.16,214.9Z"/><path class="cls-9" d="M114.15,159.62a11.93,11.93,0,1,1,11.93-11.93A11.94,11.94,0,0,1,114.15,159.62Z"/><path class="cls-9" d="M114.15,185.48a9.55,9.55,0,1,1,9.54-9.54A9.55,9.55,0,0,1,114.15,185.48Z"/><path class="cls-9" d="M113.33,207.32a7.64,7.64,0,1,1,7.63-7.64A7.64,7.64,0,0,1,113.33,207.32Z"/><path class="cls-9" d="M114.15,226.93a6.11,6.11,0,1,1,6.11-6.11A6.11,6.11,0,0,1,114.15,226.93Z"/><path class="cls-10" d="M89.7,151.73a11.93,11.93,0,1,1,16.52-3.43A11.94,11.94,0,0,1,89.7,151.73Z"/><path class="cls-10" d="M75.51,173.35a9.55,9.55,0,1,1,13.22-2.75A9.56,9.56,0,0,1,75.51,173.35Z"/><path class="cls-10" d="M62.83,191.15A7.64,7.64,0,1,1,73.41,189,7.64,7.64,0,0,1,62.83,191.15Z"/><path class="cls-10" d="M52.76,208a6.11,6.11,0,1,1,8.47-1.75A6.11,6.11,0,0,1,52.76,208Z"/><path class="cls-11" d="M72.11,135.47a11.94,11.94,0,1,1,16.12,5A11.94,11.94,0,0,1,72.11,135.47Z"/><path class="cls-11" d="M49.24,147.53a9.55,9.55,0,1,1,12.9,4A9.55,9.55,0,0,1,49.24,147.53Z"/><path class="cls-11" d="M29.53,157a7.64,7.64,0,1,1,10.32,3.2A7.64,7.64,0,0,1,29.53,157Z"/><path class="cls-11" d="M12.57,166.85a6.11,6.11,0,1,1,8.26,2.56A6.11,6.11,0,0,1,12.57,166.85Z"/><path class="cls-12" d="M113.08,67.31a11.93,11.93,0,1,1-11.94,11.93A11.93,11.93,0,0,1,113.08,67.31Z"/><path class="cls-12" d="M113.08,41.45A9.55,9.55,0,1,1,103.53,51,9.54,9.54,0,0,1,113.08,41.45Z"/><path class="cls-12" d="M113.9,19.61a7.64,7.64,0,1,1-7.63,7.64A7.64,7.64,0,0,1,113.9,19.61Z"/><path class="cls-12" d="M113.08,0A6.11,6.11,0,1,1,107,6.11,6.11,6.11,0,0,1,113.08,0Z"/><path class="cls-13" d="M67.31,114.24a11.93,11.93,0,1,1,11.93,11.93A11.93,11.93,0,0,1,67.31,114.24Z"/><path class="cls-13" d="M41.45,114.24A9.55,9.55,0,1,1,51,123.79,9.56,9.56,0,0,1,41.45,114.24Z"/><path class="cls-13" d="M19.61,113.42a7.64,7.64,0,1,1,7.64,7.63A7.64,7.64,0,0,1,19.61,113.42Z"/><path class="cls-13" d="M0,114.24a6.11,6.11,0,1,1,6.11,6.11A6.12,6.12,0,0,1,0,114.24Z"/><path class="cls-14" d="M75.2,89.79a11.94,11.94,0,1,1,3.43,16.52A11.94,11.94,0,0,1,75.2,89.79Z"/><path class="cls-14" d="M53.59,75.6a9.55,9.55,0,1,1,2.74,13.22A9.54,9.54,0,0,1,53.59,75.6Z"/><path class="cls-14" d="M35.78,62.93A7.64,7.64,0,1,1,38,73.5,7.64,7.64,0,0,1,35.78,62.93Z"/><path class="cls-14" d="M18.94,52.86a6.11,6.11,0,1,1,1.75,8.46A6.11,6.11,0,0,1,18.94,52.86Z"/><path class="cls-15" d="M91.46,72.2a11.94,11.94,0,1,1-5,16.13A11.94,11.94,0,0,1,91.46,72.2Z"/><path class="cls-15" d="M79.4,49.33a9.55,9.55,0,1,1-4,12.9A9.55,9.55,0,0,1,79.4,49.33Z"/><path class="cls-15" d="M70,29.62a7.64,7.64,0,1,1-3.2,10.32A7.64,7.64,0,0,1,70,29.62Z"/><path class="cls-15" d="M60.08,12.66a6.11,6.11,0,1,1-2.56,8.26A6.12,6.12,0,0,1,60.08,12.66Z"/><path class="cls-3" d="M539.91,70c0,4.44-3.28,8-8.67,8-5.08,0-8.36-3.6-8.36-8s3.39-8,8.57-8S539.81,65.49,539.91,70Z"/><path class="cls-3" d="M540.12,59.55c0,4.44-3.28,8-8.68,8-5.08,0-8.36-3.6-8.36-8s3.39-8,8.57-8S540,55,540.12,59.55Z"/><path class="cls-3" d="M540,48.34c0,4.44-3.28,8-8.67,8-5.08,0-8.36-3.6-8.36-8s3.38-8,8.57-8S539.91,43.78,540,48.34Z"/><path class="cls-3" d="M540.32,81.46c0,4.44-3.29,8-8.68,8-5.08,0-8.36-3.6-8.36-8s3.39-8,8.57-8S540.21,76.91,540.32,81.46Z"/><path class="cls-13" d="M540.11,70c0,4.44-3.27,8-8.67,8-5.08,0-8.36-3.6-8.36-8s3.39-8,8.57-8S540,65.49,540.11,70Z"/><g class="cls-16"><path class="cls-6" d="M540.32,59.55c0,4.45-3.28,8-8.67,8-5.08,0-8.36-3.59-8.36-8s3.38-8,8.56-8S540.21,55,540.32,59.55Z"/></g><g class="cls-16"><path class="cls-12" d="M540.22,48.34c0,4.44-3.29,8-8.68,8-5.08,0-8.36-3.6-8.36-8s3.39-8,8.57-8S540.11,43.79,540.22,48.34Z"/></g><g class="cls-16"><path class="cls-9" d="M540.52,81.46c0,4.44-3.28,8-8.68,8-5.08,0-8.35-3.6-8.35-8s3.38-8,8.57-8S540.41,76.91,540.52,81.46Z"/></g></g></g></svg>