<svg xmlns="http://www.w3.org/2000/svg" viewBox="0 0 144 104.4">&gt;<path d="M28.3 52.2c-13.6 0-24.7 11-24.7 24.7 0 13.6 11.1 24.7 24.7 24.7 13.1 0 23.9-10.3 24.7-23.2V52.3l-24.7-.1z" fill="#127abb"/><path d="M57.1 29.6c0-10.2 8.3-18.5 18.5-18.5s18.5 8.3 18.5 18.5c0 9.9-7.7 17.9-17.4 18.5H57.1V29.6z" fill="#c1cd23"/><path d="M53 25.5C53 13 42.9 2.8 30.3 2.8 17.8 2.8 7.7 13 7.7 25.5c0 12 9.4 21.9 21.3 22.6h24V25.5z" fill="#579bbd"/><path class="tx" d="M61.9 91.6c-1.5 0-2.7-.6-3.6-1.6-.8-1-1.3-2.4-1.3-4 0-1.4.2-2.5.8-3.4.8-1.6 2.4-2.6 4.2-2.6 1.1 0 2.1.3 2.8.9l-.9 1.2c-.6-.4-1.2-.6-1.9-.6-1 0-1.8.5-2.3 1.4-.4.7-.6 1.6-.6 3s.1 2.2.4 2.8c.5 1.1 1.4 1.6 2.5 1.6.8 0 1.4-.2 2-.7l.9 1.2c-.7.5-1.7.8-3 .8zm8.6 0c-3.2 0-4.8-2.5-4.8-5.8 0-3.7 1.9-5.8 4.7-5.8 3.2 0 4.7 2.5 4.7 5.8 0 3.6-1.7 5.8-4.6 5.8zm-.1-10.1c-1.9 0-2.6 1.5-2.6 4.2 0 2.9.7 4.5 2.7 4.5 1.7 0 2.5-1.2 2.5-4.3 0-2.7-.6-4.4-2.6-4.4zm16 10l-.5-7c0-.7-.1-1.6-.1-2-.1.4-.2 1.1-.4 1.8l-2.1 7.1h-1.6l-1.9-6.8c-.2-.8-.4-1.8-.5-2.1 0 .4-.1 1.5-.1 2.2l-.5 6.8h-1.8l1-11.3h2.5l1.7 6.4c.3.9.4 1.6.4 1.9.1-.3.2-1.1.4-1.9l1.8-6.4h2.5l1 11.3h-1.8zm7.9-4.3h-1.9v4.3h-1.9V80.2h3c1.6 0 2.3.2 2.9.5 1 .6 1.5 1.6 1.5 2.8.1 2.3-1.5 3.7-3.6 3.7zm1.2-4.9c-.3-.4-.8-.6-1.6-.6h-1.5v4h1.5c1.4 0 2-.7 2-2 0-.6-.1-1.1-.4-1.4zm7.9 9.4c-3 0-3.9-1.5-3.9-3.3v-8.1h1.9v7.6c0 1.7.6 2.3 2 2.3s2-.8 2-2.3v-7.6h1.9v8.1c0 2-1.4 3.3-3.9 3.3zm13-10h-2.8v9.7h-1.9v-9.7h-2.9v-1.6h7.8l-.2 1.6zm1.2 9.8V80.2h1.9v11.3h-1.9zm10.2 0l-2.5-5.3c-.6-1.3-1.2-2.7-1.4-3.3.1.9.1 2.1.1 3.1l.1 5.5h-1.8V80.2h2.1l2.7 5.5c.5 1 1 2.4 1.2 2.9 0-.6-.2-2.2-.2-3.2v-5.2h1.8v11.3h-2.1zm9.1.1c-1.6 0-2.8-.5-3.7-1.6-.9-1.1-1.3-2.3-1.3-4.1 0-2.3.7-3.9 2.1-5 .8-.6 1.7-.9 2.8-.9 1.3 0 2.4.4 3.4 1.2l-.9 1.2c-.8-.6-1.5-.9-2.4-.9-2.1 0-2.9 1.8-2.9 4.5 0 1.6.3 2.7.8 3.3.5.5 1.3.8 2.1.8.6 0 1.1-.1 1.5-.4v-2.9h-1.9l-.3-1.5h4.1v5.3c-.9.7-2.2 1-3.4 1zM62.8 60.3l-2.4-4.5c-.5-.9-.8-1.8-.8-1.8s.1 1.1.1 2v4.3h-.9V53h1l2.4 4.7c.4.7.7 1.5.7 1.5s-.1-1.2-.1-2.2v-4h.9v7.4h-.9zm5.6.2c-.8 0-1.6-.3-2.1-1-.6-.7-.9-1.7-.9-2.8 0-2.2 1.3-3.8 3.1-3.8.7 0 1.4.2 1.9.6l-.5.6c-.4-.3-.9-.5-1.4-.5-.8 0-1.5.4-1.8 1.3-.2.5-.3 1.1-.3 2 0 .7.1 1.1.2 1.6.4.9 1.1 1.4 2 1.4.5 0 1-.1 1.4-.5l.5.6c-.6.2-1.4.5-2.1.5zm9.2-.2h-1.1l-.9-4.1c-.2-1.1-.4-2-.4-2.1 0 .1-.2 1-.4 2l-.9 4.2h-1.1L71 53h.9l.9 4.3c.2.9.4 2.1.4 2.2 0-.1.2-1.3.4-2.1l1-4.4h1l1 4.6c.2 1.1.4 1.9.4 2 0-.1.2-1.2.4-2.3l.9-4.3h.9l-1.6 7.3zm2.9 0V53h.9v7.4h-.9zm6.8-6.6h-2v6.6h-.8v-6.6h-2V53h4.9l-.1.7zM63.6 75l-.8-2.6h-3.2l-.8 2.6h-1.7l3.2-9.9h1.9l3.2 9.9h-1.8zm-2.4-8.3s-1 3.6-1.3 4.3h2.4c0-.2-1-3.9-1.1-4.3zm7.5 8.5c-.9 0-1.8-.3-2.8-.8l.6-1.1c.6.4 1.5.8 2.3.8.7 0 1.2-.4 1.2-1s-.4-.8-1.2-1l-.9-.2c-1.1-.2-1.7-1-1.7-2 0-1.4 1.1-2.3 2.7-2.3 1 0 1.8.3 2.4.6l-.5 1.1c-.7-.4-1.2-.5-1.8-.5-.7 0-1.1.4-1.1.9 0 .4.2.7 1 .9l.9.2c1.5.4 1.8 1.2 1.8 2 0 1.4-1.2 2.4-2.9 2.4zm7.7-.1c-.6 0-1.2-.2-1.7-.6v3.1l-1.5.4v-8.4c0-.9 0-1.3-.1-1.8l1.4-.3c.1.2.1.4.1.9.5-.6 1.2-.9 1.9-.9 1.5 0 2.7 1.1 2.7 3.6.1 2.5-.9 4-2.8 4zm-.1-6.2c-.6 0-1.1.3-1.5.7v3.6c.4.4.9.6 1.3.6 1.1 0 1.5-.8 1.5-2.5 0-1.5-.3-2.4-1.3-2.4zm5.7-2.2c-.6 0-1-.5-1-1 0-.6.5-1.1 1-1.1.6 0 1 .5 1 1.1 0 .5-.4 1-1 1zm-.8 8.3v-7.1l1.6-.3V75h-1.6zm7.2-5.9c-.1 0-.2-.1-.4-.1-.7 0-1.2.5-1.4 1.1V75H85v-5.1c0-.9-.1-1.5-.3-1.9l1.4-.4c.2.3.3.7.3 1.1.6-.8 1.1-1.2 1.8-1.2.2 0 .4 0 .6.1l-.4 1.5zm6.3 6.2c-.4-.2-.8-.5-1-1-.6.7-1.2.9-2 .9-1.7 0-2.4-.9-2.4-2.2 0-1.7 1.3-2.5 3.6-2.5h.5v-.4c0-.8-.1-1.3-1-1.3-1 0-2.2.8-2.2.8l-.7-1.1c1.1-.7 2-1 3.1-1s1.9.4 2.2 1.2c.1.3.1.7.1 1.8v2.1c0 1 .1 1.3.6 1.7l-.8 1zM93 71.6c-1.6 0-2 .5-2 1.4 0 .7.4 1.1 1 1.1.5 0 1-.3 1.3-.8v-1.7H93zm6 3.6c-1.4 0-1.9-.8-1.9-1.9v-4.5h-.8v-1.1h.8c0-.6 0-1.2.1-1.8l1.6-.4c-.1.6-.1 1.5-.1 2.2h1.7l-.4 1.1h-1.3v4.1c0 .9.2 1.2.9 1.2.2 0 .4 0 .7-.1l.2.9c-.5.2-1 .3-1.5.3zm3.7-8.5c-.6 0-1-.5-1-1 0-.6.5-1.1 1-1.1.6 0 1 .5 1 1.1 0 .5-.4 1-1 1zm-.8 8.3v-7.1l1.6-.3V75h-1.6zm6.6.2c-2 0-3.2-1.5-3.2-3.8s1.2-3.8 3.2-3.8c2.1 0 3.2 1.5 3.2 3.8s-1.3 3.8-3.2 3.8zm-.1-6.4c-1 0-1.4.8-1.4 2.5 0 2.1.5 2.7 1.5 2.7.9 0 1.4-.8 1.4-2.6 0-2-.5-2.6-1.5-2.6zm9 6.2v-4.8c0-1-.2-1.3-.8-1.3-.5 0-1.1.3-1.6.8V75h-1.5v-5.3c0-.8-.1-1.2-.3-1.7l1.4-.4c.2.3.3.6.3 1 .8-.7 1.4-1 2.2-1 1.1 0 1.9.7 1.9 2V75h-1.6zm5.9.2c-.9 0-1.8-.3-2.8-.8l.6-1.1c.6.4 1.5.8 2.3.8.7 0 1.2-.4 1.2-1s-.4-.8-1.2-1l-.9-.2c-1.1-.2-1.7-1-1.7-2 0-1.4 1.1-2.3 2.7-2.3 1 0 1.8.3 2.4.6l-.5 1.1c-.7-.4-1.2-.5-1.8-.5-.7 0-1.1.4-1.1.9 0 .4.2.7 1 .9l.9.2c1.5.4 1.8 1.2 1.8 2 0 1.4-1.2 2.4-2.9 2.4zm8.5-8.5c-.6 0-1-.5-1-1 0-.6.5-1.1 1-1.1.6 0 1 .5 1 1.1 0 .5-.4 1-1 1zM131 75v-7.1l1.6-.3V75H131zm7.8 0v-4.8c0-1-.2-1.3-.8-1.3-.5 0-1.1.3-1.6.8V75h-1.5v-5.3c0-.8-.1-1.2-.3-1.7l1.4-.4c.2.3.3.6.3 1 .8-.7 1.4-1 2.2-1 1.1 0 1.9.7 1.9 2V75h-1.6z"/></svg>