<?xml version="1.0" encoding="utf-8"?>
<!-- Svg Vector Icons : http://www.onlinewebfonts.com/icon -->
<!DOCTYPE svg PUBLIC "-//W3C//DTD SVG 1.1//EN" "http://www.w3.org/Graphics/SVG/1.1/DTD/svg11.dtd">
<svg version="1.1" xmlns="http://www.w3.org/2000/svg" xmlns:xlink="http://www.w3.org/1999/xlink" x="0px" y="0px" viewBox="0 0 256 256" enable-background="new 0 0 256 256" xml:space="preserve">
<metadata> Svg Vector Icons : http://www.onlinewebfonts.com/icon </metadata>
<g><g><g><path fill="#000000" d="M116.7,10.3C88.9,13.1,64,24.9,44.4,44.5c-18.8,18.8-29.9,41.5-33.9,69c-0.9,6.3-0.7,24.1,0.3,30.7c2,13.4,5.5,24.5,11.2,36c6.2,12.5,13.1,22,22.9,31.7c9.7,9.7,18.7,16,31.1,22.1c11.7,5.7,21.3,8.8,34.5,10.9c7.4,1.2,25.1,1.4,32,0.5c22.7-3.3,42.9-11.9,59.6-25.4c23.8-19.2,38.8-46.1,43.3-77.5c0.8-5.4,0.8-23.6,0-29.1c-3.9-27.3-15.2-50.3-33.9-69c-18.3-18.3-40.6-29.5-66.9-33.5C138.8,10,122.6,9.6,116.7,10.3z M161.8,54.6c1.1,0.6,1.2,2.9,0.1,3.9c-0.6,0.6-4.2,0.7-31.9,0.7H98.9v12.5v12.5h1.6c1.4,0,5.4,1.1,7.8,2.1c0.6,0.3,0.8,0.1,0.8-1.1v-1.4h12h12v2.5v2.5H123h-10.2l2.5,2.5c1.3,1.3,3.1,3.5,3.9,4.9l1.5,2.4h28.4h28.4v2.5v2.5h-27.3h-27.3l0.3,1c0.1,0.6,0.4,2.8,0.6,4.9l0.3,3.8h26.7h26.7v2.5v2.5h-26.8h-26.8v4.9v4.8h26.8h26.8v2.5v2.5h-26.8h-26.8v4.9v4.8h26.8h26.8v2.5v2.5h-26.8h-26.8v6.3v6.4l3.3,1.8c4.9,2.8,7,4.9,9,8.9c1.7,3.4,1.8,3.6,1.9,9.7l0.2,6.2h24.7h24.7v-51c0-45.8,0.1-51.1,0.7-51.7c0.8-0.9,1.8-0.9,3-0.3c0.9,0.5,0.9,1.6,0.9,53.5c0,40.6-0.1,53.2-0.6,53.6c-0.4,0.4-7.1,0.6-27,0.6h-26.5v5.1v5.1H96.4H54.6v-12.7c0-11.6,0.1-13,0.9-15.5c1.8-5.3,4.2-7.9,10.3-11.5l3.6-2.1l0.1-26.8c0.2-23.4,0.3-27.1,1-29.5c2.9-9.9,11-17.6,20.6-19.4l2.8-0.6v-14c0-12.4,0.1-14.2,0.8-14.9c0.7-0.8,2.4-0.8,33.5-0.8C149.8,54.1,161.2,54.3,161.8,54.6z M186.7,64.6c10.8,10.8,11.6,11.8,10,13.4c-0.8,0.8-22.6,0.8-23.4,0c-0.4-0.4-0.6-3.6-0.6-11.8c0-10.2,0.1-11.2,0.8-11.6c0.4-0.3,1.2-0.5,1.7-0.5C175.9,54.1,180.1,58,186.7,64.6z M164.9,78.8v12.2h-12.2h-12.2V78.8V66.6h12.2h12.2V78.8z M133.1,71.4V74h-12.2h-12.2v-2.5v-2.5h12.2h12.2V71.4z M177.4,160.1v2.5l-9.8-0.1l-9.8-0.1l-0.1-2.4l-0.1-2.4h9.9h10V160.1z"/><path fill="#000000" d="M90.6,89.5c-6.8,1.8-12,6.7-14.9,13.8l-1.1,2.8l-0.1,25.6l-0.1,25.5l2.2-1.2c5.3-3,7.2-6,7.4-11.8c0.2-3.7,0.1-4.1-1-5.8c-0.7-1-1.8-3.4-2.4-5.4c-1.1-3.4-1.2-4.2-1.2-14.8c0-6.2,0.2-11.5,0.5-11.9c0.3-0.6,2-0.7,8.2-1c7.4-0.2,7.9-0.3,10.2-1.5c2.9-1.5,4.4-1.4,6.9,0.5c0.9,0.6,3.1,1.8,4.9,2.4l3.3,1.2l0.1,10.9c0.1,10.6,0.1,11.1-1.1,14.4c-0.6,1.8-1.8,4.5-2.6,5.8c-1.4,2.2-1.4,2.5-1.2,6.6c0.2,5.3,0.8,6.4,5.9,9.3c2,1.2,3.8,2.1,3.9,2.1c0.1,0,0.2-11.1,0.2-24.6c0-26.5,0-27.3-2.5-32.1c-1.5-2.9-4.8-6.6-7.5-8.3C103.9,89,96.4,87.9,90.6,89.5z"/><path fill="#000000" d="M98.7,109c-2,1.1-2.9,1.2-8.3,1.3l-6.1,0.1v9.4c0,8.6,0.1,9.6,1.1,12.4c2.6,7.4,8.1,11.6,13.3,10.2c2.8-0.7,6.3-4.2,7.9-7.6c1.9-4.2,2.4-6.8,2.4-15.8v-8l-2.1-0.6c-1.2-0.3-2.8-1.1-3.7-1.7C101.3,107.5,101.6,107.5,98.7,109z"/><path fill="#000000" d="M88.6,147.6c-0.4,4.2-3.7,9.1-7.5,11.1l-1.7,0.9l0.2,2.7c0.5,5.6,4.3,10.8,9.9,13.4c2.7,1.2,3.6,1.4,7,1.5c3.7,0,4.3-0.1,7.5-1.8c5.5-2.7,9.1-7.7,9.5-13l0.2-2.3l-2.4-1.3c-4.9-2.7-7-5.6-7.7-10.4c-0.2-1.3-0.4-2.4-0.4-2.4c0,0-0.9,0.3-1.9,0.7c-3,1.1-7.4,0.9-10.2-0.4l-2.4-1.1L88.6,147.6z"/><path fill="#000000" d="M70.3,165.2c-6.4,3.8-7.9,5.1-9.5,8.5l-1.4,3l-0.2,10l-0.2,10.1h3.7h3.7l0.1-3.6l0.1-3.6l2.4-0.1l2.4-0.1v3.7v3.7h24.7h24.7v-3.7v-3.7h2.3h2.3v3.7v3.7h3.7h3.7l0-10.3c0-6.6-0.2-10.8-0.6-11.7c-1.3-3.5-3.3-5.5-8.6-8.6c-2.8-1.7-5.2-3-5.3-3c-0.1,0-0.3,0.8-0.5,1.8c-0.5,3-3.4,8.3-6.1,10.9c-1.5,1.5-3.8,3.1-6,4.2c-3.2,1.6-4,1.8-8,1.9c-7.1,0.3-11.5-1.3-16.3-5.9c-3.3-3.1-4.8-5.6-6.1-10.1l-1-3.4L70.3,165.2z"/><path fill="#000000" d="M177.5,68.3l0.1,5.5l5.8,0.1l5.8,0.1l-5.5-5.6c-3-3-5.7-5.5-5.9-5.5C177.6,62.9,177.5,65.3,177.5,68.3z"/><path fill="#000000" d="M145.5,78.6V86h7.4h7.4l-0.1-7.3l-0.1-7.3l-7.3-0.1l-7.3-0.1L145.5,78.6L145.5,78.6z"/></g></g></g>
</svg>