<?xml version="1.0" encoding="UTF-8"?>
<!DOCTYPE svg PUBLIC "-//W3C//DTD SVG 1.1//EN" "http://www.w3.org/Graphics/SVG/1.1/DTD/svg11.dtd">
<svg xmlns="http://www.w3.org/2000/svg" version="1.1" width="1920px" height="1080px" style="shape-rendering:geometricPrecision; text-rendering:geometricPrecision; image-rendering:optimizeQuality; fill-rule:evenodd; clip-rule:evenodd" xmlns:xlink="http://www.w3.org/1999/xlink">
<g><path style="opacity:1" fill="#f49fc6" d="M -0.5,-0.5 C 639.5,-0.5 1279.5,-0.5 1919.5,-0.5C 1919.5,359.5 1919.5,719.5 1919.5,1079.5C 1279.5,1079.5 639.5,1079.5 -0.5,1079.5C -0.5,719.5 -0.5,359.5 -0.5,-0.5 Z"/></g>
<g><path style="opacity:1" fill="#ab264a" d="M 1299.5,106.5 C 1320.09,103.107 1337.93,108.44 1353,122.5C 1362.1,134.706 1365.1,148.373 1362,163.5C 1355.19,183.841 1341.02,195.008 1319.5,197C 1302.28,199.094 1286.94,194.76 1273.5,184C 1258.7,166.726 1256.53,147.893 1267,127.5C 1275.38,116.569 1286.21,109.569 1299.5,106.5 Z"/></g>
<g><path style="opacity:1" fill="#f5f5f6" d="M 1300.5,121.5 C 1314.72,119.279 1327.72,122.112 1339.5,130C 1347.15,138.756 1349.65,148.923 1347,160.5C 1342.07,173.566 1332.57,180.732 1318.5,182C 1308.25,183.673 1298.58,182.006 1289.5,177C 1276.29,167.057 1272.46,154.224 1278,138.5C 1283.39,129.925 1290.89,124.259 1300.5,121.5 Z"/></g>
<g><path style="opacity:1" fill="#ab264a" d="M 1352.5,202.5 C 1353.83,202.5 1355.17,202.5 1356.5,202.5C 1356.5,213.833 1356.5,225.167 1356.5,236.5C 1355.97,283.001 1355.3,329.501 1354.5,376C 1354.4,385.881 1354.9,395.715 1356,405.5C 1358.84,407.585 1361.84,407.919 1365,406.5C 1398.17,356 1431.33,305.5 1464.5,255C 1449.25,252.769 1436.75,257.603 1427,269.5C 1417.7,284.893 1411.87,301.56 1409.5,319.5C 1397.42,318.81 1385.42,317.477 1373.5,315.5C 1377.69,279.25 1381.02,242.917 1383.5,206.5C 1449.15,217.456 1515.15,225.456 1581.5,230.5C 1580.75,231.736 1580.42,233.07 1580.5,234.5C 1617.22,246.18 1654.55,255.347 1692.5,262C 1722.87,273.926 1754.21,282.093 1786.5,286.5C 1786.26,288.467 1786.59,290.301 1787.5,292C 1816.63,307.532 1847.63,316.699 1880.5,319.5C 1857.17,381.31 1833.34,442.977 1809,504.5C 1808.18,507.227 1808.35,509.894 1809.5,512.5C 1815.8,516.155 1822.47,518.822 1829.5,520.5C 1825.29,533.235 1820.29,545.568 1814.5,557.5C 1773.96,538.23 1732.29,521.73 1689.5,508C 1688.48,507.481 1687.82,506.647 1687.5,505.5C 1691.48,493.705 1696.31,482.372 1702,471.5C 1708.48,473.939 1714.98,476.272 1721.5,478.5C 1722.5,478.167 1723.5,477.833 1724.5,477.5C 1742.15,435.067 1759.31,392.4 1776,349.5C 1777.49,344.88 1778.65,340.214 1779.5,335.5C 1779.54,332.753 1778.54,330.586 1776.5,329C 1771.53,327.067 1766.53,325.233 1761.5,323.5C 1756.64,325.851 1752.47,329.184 1749,333.5C 1711.97,387.185 1674.97,440.852 1638,494.5C 1623.6,489.4 1608.93,485.4 1594,482.5C 1585.42,414.863 1577.09,347.197 1569,279.5C 1568.32,275.599 1566.82,272.099 1564.5,269C 1562.64,268.578 1560.81,268.078 1559,267.5C 1557.74,267.759 1556.74,268.426 1556,269.5C 1523.5,319.167 1491,368.833 1458.5,418.5C 1480.9,419.615 1496.07,409.615 1504,388.5C 1507.93,377.768 1510.77,366.768 1512.5,355.5C 1513.83,355.167 1515.17,354.833 1516.5,354.5C 1527.48,356.032 1538.48,357.365 1549.5,358.5C 1544.88,394.737 1541.21,431.07 1538.5,467.5C 1472.91,456.513 1406.91,448.68 1340.5,444C 1311.17,443.333 1281.83,443.333 1252.5,444C 1239.3,446.72 1225.96,448.553 1212.5,449.5C 1185.76,449.059 1166.93,436.726 1156,412.5C 1148.4,388.352 1140.4,364.352 1132,340.5C 1129.34,334.171 1125.5,328.671 1120.5,324C 1118.8,323.042 1116.97,322.542 1115,322.5C 1110.46,322.937 1105.96,323.603 1101.5,324.5C 1105.35,355.575 1109.69,386.575 1114.5,417.5C 1124.16,417.042 1133.83,416.709 1143.5,416.5C 1145.49,429.089 1146.82,441.756 1147.5,454.5C 1140.16,454.334 1132.83,454.5 1125.5,455C 1091.5,459.2 1057.5,463.534 1023.5,468C 1014.73,469.388 1006.06,471.221 997.5,473.5C 996.808,472.975 996.308,472.308 996,471.5C 994.827,459.446 993.327,447.446 991.5,435.5C 1000.66,434.251 1009.66,432.251 1018.5,429.5C 1019.66,424.198 1019.83,418.864 1019,413.5C 1010,343.839 1001,274.172 992,204.5C 991.55,202.481 990.717,200.648 989.5,199C 980.135,198.936 970.801,198.769 961.5,198.5C 959.377,186.602 958.043,174.602 957.5,162.5C 1004.38,158.445 1051.05,152.612 1097.5,145C 1121.34,142.428 1145.01,143.428 1168.5,148C 1209.74,159.568 1229.91,186.734 1229,229.5C 1226.71,257.254 1214.21,279.088 1191.5,295C 1209.53,304.033 1222.37,317.866 1230,336.5C 1235.67,352.167 1241.33,367.833 1247,383.5C 1248.47,387.779 1250.47,391.779 1253,395.5C 1256.38,391.783 1259.38,387.783 1262,383.5C 1263.24,381.167 1264.91,380.5 1267,381.5C 1268.29,338.173 1268.62,294.839 1268,251.5C 1267.26,248.707 1265.42,247.207 1262.5,247C 1256.51,246.501 1250.51,246.334 1244.5,246.5C 1244.5,233.167 1244.5,219.833 1244.5,206.5C 1280.78,211.625 1316.78,210.292 1352.5,202.5 Z"/></g>
<g><path style="opacity:1" fill="#f5f5f6" d="M 1140.5,301.5 C 1139.08,301.709 1137.74,302.209 1136.5,303C 1143.83,303.5 1151.16,303.666 1158.5,303.5C 1184.81,304.056 1203.64,316.056 1215,339.5C 1220.95,355.059 1226.61,370.725 1232,386.5C 1234.62,393.039 1237.62,399.373 1241,405.5C 1247.06,412.413 1253.9,413.247 1261.5,408C 1264.02,405.317 1266.68,402.817 1269.5,400.5C 1271.39,401.604 1273.06,402.937 1274.5,404.5C 1270.87,410.599 1266.2,415.766 1260.5,420C 1273.95,420.554 1281.12,414.054 1282,400.5C 1283.17,350.504 1283.5,300.504 1283,250.5C 1280.67,237.411 1272.83,231.078 1259.5,231.5C 1259.5,228.833 1259.5,226.167 1259.5,223.5C 1285.95,225.416 1312.28,224.416 1338.5,220.5C 1339.5,220.5 1340.5,220.5 1341.5,220.5C 1341.5,226.833 1341.5,233.167 1341.5,239.5C 1340.65,293.834 1340.15,348.167 1340,402.5C 1341.86,416.851 1350.03,423.185 1364.5,421.5C 1364.5,424.5 1364.5,427.5 1364.5,430.5C 1328.53,428.781 1292.53,428.114 1256.5,428.5C 1256.66,426.801 1256.49,425.134 1256,423.5C 1236.88,433.897 1216.72,436.731 1195.5,432C 1184.15,427.984 1175.98,420.484 1171,409.5C 1163.47,387.24 1156.14,364.907 1149,342.5C 1145.05,329.059 1137.55,318.226 1126.5,310C 1122.71,308.219 1118.71,307.386 1114.5,307.5C 1104.87,308.224 1095.37,309.557 1086,311.5C 1086.67,325.531 1088,339.531 1090,353.5C 1092.17,370.859 1094.5,388.193 1097,405.5C 1097.93,411.652 1099.43,417.652 1101.5,423.5C 1103.03,427.199 1105.7,429.699 1109.5,431C 1116.84,431.713 1123.84,432.879 1130.5,434.5C 1130.74,436.886 1130.07,438.886 1128.5,440.5C 1088.3,443.92 1048.3,448.92 1008.5,455.5C 1008.19,452.753 1008.52,450.086 1009.5,447.5C 1015.69,446.287 1021.69,444.453 1027.5,442C 1030.87,439.635 1033.04,436.468 1034,432.5C 1034.67,425.5 1034.67,418.5 1034,411.5C 1024.67,340.827 1015.33,270.16 1006,199.5C 1004.13,190.964 998.964,185.797 990.5,184C 985.177,183.501 979.844,183.334 974.5,183.5C 974.425,180.794 974.092,178.127 973.5,175.5C 1015.35,171.728 1057.01,166.561 1098.5,160C 1119.95,157.47 1141.28,158.137 1162.5,162C 1200.28,171.46 1217.45,195.626 1214,234.5C 1209.96,255.524 1199.13,272.024 1181.5,284C 1168.76,292.038 1155.09,297.871 1140.5,301.5 Z"/></g>
<g><path style="opacity:1" fill="#ab264a" d="M 1088.5,168.5 C 1116.04,164.344 1134.21,175.344 1143,201.5C 1150.02,223.48 1151.35,245.813 1147,268.5C 1141.16,285.005 1129.66,295.172 1112.5,299C 1102.9,300.742 1093.23,301.909 1083.5,302.5C 1078.59,266.239 1074.26,229.905 1070.5,193.5C 1068.89,179.468 1074.89,171.134 1088.5,168.5 Z"/></g>
<g><path style="opacity:1" fill="#f49fc6" d="M 1091.5,183.5 C 1110.78,180.381 1123.28,188.047 1129,206.5C 1135.03,225.887 1136.03,245.554 1132,265.5C 1129.17,273.667 1123.67,279.167 1115.5,282C 1109.32,284.226 1102.99,285.726 1096.5,286.5C 1092.72,255.351 1089.06,224.185 1085.5,193C 1085.67,190.5 1085.83,188 1086,185.5C 1087.95,184.891 1089.78,184.224 1091.5,183.5 Z"/></g>
<g><path style="opacity:1" fill="#ab264a" d="M 1841.5,210.5 C 1859.93,210.143 1876.59,215.31 1891.5,226C 1910.82,245.479 1912.65,266.646 1897,289.5C 1884.25,302.572 1868.75,307.405 1850.5,304C 1831.06,299.875 1816.89,289.041 1808,271.5C 1801.83,250.668 1807,233.168 1823.5,219C 1829.2,215.316 1835.2,212.482 1841.5,210.5 Z"/></g>
<g><path style="opacity:1" fill="#f5f5f6" d="M 1525.5,442.5 C 1524.53,444.607 1524.2,446.941 1524.5,449.5C 1523.5,449.5 1522.5,449.5 1521.5,449.5C 1470.09,441.386 1418.42,435.219 1366.5,431C 1407.7,368.635 1448.7,306.135 1489.5,243.5C 1475,239.528 1460.34,238.695 1445.5,241C 1425.98,246.851 1412.48,259.351 1405,278.5C 1401.89,285.924 1399.56,293.591 1398,301.5C 1395.28,302.444 1392.45,302.777 1389.5,302.5C 1392.43,276.528 1395.1,250.528 1397.5,224.5C 1450,232.152 1502.67,238.485 1555.5,243.5C 1514.25,305.662 1473.25,367.995 1432.5,430.5C 1483.12,442.686 1513.62,423.352 1524,372.5C 1526.72,371.556 1529.55,371.223 1532.5,371.5C 1529.65,395.113 1527.32,418.78 1525.5,442.5 Z"/></g>
<g><path style="opacity:1" fill="#f5f5f6" d="M 1844.5,225.5 C 1862.91,225.124 1877.74,232.124 1889,246.5C 1893,254.597 1893.33,262.931 1890,271.5C 1882.2,287.111 1869.7,292.944 1852.5,289C 1837.37,286.041 1826.87,277.541 1821,263.5C 1818.52,244.197 1826.36,231.53 1844.5,225.5 Z"/></g>
<g><path style="opacity:1" fill="#d3668c" d="M 1352.5,202.5 C 1353.92,201.549 1355.59,201.216 1357.5,201.5C 1357.83,213.345 1357.49,225.012 1356.5,236.5C 1356.5,225.167 1356.5,213.833 1356.5,202.5C 1355.17,202.5 1353.83,202.5 1352.5,202.5 Z"/></g>
<g><path style="opacity:1" fill="#c8758c" d="M 1338.5,220.5 C 1339.57,219.566 1340.9,219.232 1342.5,219.5C 1342.82,226.354 1342.49,233.021 1341.5,239.5C 1341.5,233.167 1341.5,226.833 1341.5,220.5C 1340.5,220.5 1339.5,220.5 1338.5,220.5 Z"/></g>
<g><path style="opacity:1" fill="#f5f5f6" d="M 1569.5,246.5 C 1603.75,258.48 1638.75,267.48 1674.5,273.5C 1673.83,276.167 1673.17,278.833 1672.5,281.5C 1665.56,279.943 1658.56,279.11 1651.5,279C 1647.83,280.668 1645.67,283.501 1645,287.5C 1645,298.853 1645.67,310.186 1647,321.5C 1650.5,355.853 1654.17,390.186 1658,424.5C 1674.33,401.167 1690.67,377.833 1707,354.5C 1713.6,344.309 1718.26,333.309 1721,321.5C 1722.6,305.927 1716.1,295.261 1701.5,289.5C 1699.96,286.379 1700.46,283.713 1703,281.5C 1724.29,289.321 1746.13,294.988 1768.5,298.5C 1767.83,301.167 1767.17,303.833 1766.5,306.5C 1761.06,306.479 1756.06,307.979 1751.5,311C 1746.37,315.133 1741.53,319.633 1737,324.5C 1702.5,374.833 1668,425.167 1633.5,475.5C 1632.83,475.833 1632.17,476.167 1631.5,476.5C 1623.64,473.868 1615.64,471.868 1607.5,470.5C 1599.5,406.532 1591.67,342.532 1584,278.5C 1583.07,267.08 1577.57,258.747 1567.5,253.5C 1568.32,251.199 1568.99,248.865 1569.5,246.5 Z"/></g>
<g><path style="opacity:1" fill="#ab264a" d="M 798.5,289.5 C 828.648,285.496 851.814,296.163 868,321.5C 871.939,329.045 875.606,336.712 879,344.5C 892.137,379.578 905.47,414.578 919,449.5C 922,445.5 925,441.5 928,437.5C 936.71,445.212 945.71,452.545 955,459.5C 946.647,482.52 930.814,498.353 907.5,507C 895.556,511.602 883.223,513.269 870.5,512C 866.116,511.094 861.949,509.594 858,507.5C 836.979,537.585 808.145,550.085 771.5,545C 759.761,541.381 749.928,534.881 742,525.5C 740.476,551.713 729.976,573.546 710.5,591C 689.799,609.571 665.466,618.904 637.5,619C 623.013,627.654 613.679,640.154 609.5,656.5C 601.472,656.169 593.472,656.502 585.5,657.5C 573.025,676.818 555.692,689.318 533.5,695C 528.129,695.676 522.796,695.509 517.5,694.5C 514.027,712.599 505.027,727.432 490.5,739C 453.167,766.271 420.334,761.771 392,725.5C 378.891,703.274 378.225,680.607 390,657.5C 400.831,638.5 412.164,619.834 424,601.5C 426.284,597.225 425.95,593.225 423,589.5C 415.552,579.385 407.386,569.885 398.5,561C 392.551,557.377 386.884,557.71 381.5,562C 408.379,573.594 417.546,593.427 409,621.5C 398.722,642.557 381.888,652.057 358.5,650C 328.283,638.74 316.45,617.24 323,585.5C 331.387,561.568 345.553,541.735 365.5,526C 379.788,514.065 395.788,505.065 413.5,499C 434.255,494.567 452.921,498.901 469.5,512C 476.698,518.864 483.532,526.03 490,533.5C 513,562.833 536,592.167 559,621.5C 560.791,618.009 561.458,614.342 561,610.5C 523.333,543.833 485.667,477.167 448,410.5C 445.833,407.667 443.667,404.833 441.5,402C 439.966,401.077 438.299,400.577 436.5,400.5C 430.274,402.947 424.274,405.947 418.5,409.5C 411.78,398.561 405.447,387.394 399.5,376C 407.829,371.169 416.496,366.835 425.5,363C 437.332,356.252 448.999,349.252 460.5,342C 471.646,333.022 482.646,323.855 493.5,314.5C 512.867,348.038 532.033,381.705 551,415.5C 564.386,392.371 584.219,377.871 610.5,372C 641.811,368.991 668.311,378.825 690,401.5C 705.786,419.633 718.786,439.633 729,461.5C 732.539,451.42 737.872,442.42 745,434.5C 757.663,421.933 771.163,410.433 785.5,400C 789.667,395.833 793.833,391.667 798,387.5C 799.422,384.97 799.755,382.303 799,379.5C 794.631,366.721 789.298,354.387 783,342.5C 778.789,338.641 773.956,337.641 768.5,339.5C 789.591,359.638 791.758,381.638 775,405.5C 758.375,421.348 739.541,424.848 718.5,416C 697.415,400.166 690.915,379.666 699,354.5C 708.397,336.436 721.897,322.269 739.5,312C 758.106,301.414 777.773,293.914 798.5,289.5 Z"/></g>
<g><path style="opacity:1" fill="#f49ec5" d="M 1659.5,294.5 C 1672.2,297.505 1684.86,300.672 1697.5,304C 1705.54,307.243 1708.37,313.077 1706,321.5C 1703.92,328.066 1701.25,334.4 1698,340.5C 1688.72,354.775 1679.06,368.775 1669,382.5C 1665.5,353.199 1662.34,323.866 1659.5,294.5 Z"/></g>
<g><path style="opacity:1" fill="#d69eae" d="M 1140.5,301.5 C 1146.5,302.167 1152.5,302.833 1158.5,303.5C 1151.16,303.666 1143.83,303.5 1136.5,303C 1137.74,302.209 1139.08,301.709 1140.5,301.5 Z"/></g>
<g><path style="opacity:1" fill="#f5f5f6" d="M 737.5,343.5 C 736.957,343.56 736.624,343.893 736.5,344.5C 738.743,345.474 741.076,345.808 743.5,345.5C 764.801,350.116 773.634,363.116 770,384.5C 763.067,399.718 751.234,406.885 734.5,406C 715.776,399.076 707.943,385.576 711,365.5C 715.655,352.027 723.821,341.193 735.5,333C 761.519,313.216 790.852,303.882 823.5,305C 834.335,307.332 843.168,312.832 850,321.5C 853.919,327.67 857.586,334.003 861,340.5C 877.196,382.088 893.196,423.755 909,465.5C 912.542,471.876 917.376,473.043 923.5,469C 926,465.833 928.5,462.667 931,459.5C 933.158,460.826 934.992,462.493 936.5,464.5C 925.31,482.782 908.977,493.616 887.5,497C 870.856,500.345 859.356,494.178 853,478.5C 841.45,517.687 815.283,534.854 774.5,530C 756.535,523.264 745.702,510.431 742,491.5C 738.633,478.604 740.633,466.604 748,455.5C 753.339,447.681 759.505,440.514 766.5,434C 777.833,425 789.167,416 800.5,407C 805.765,401.737 810.265,395.904 814,389.5C 814.667,385.5 814.667,381.5 814,377.5C 809.283,362.074 802.95,347.407 795,333.5C 786.12,323.624 775.286,320.791 762.5,325C 756.403,327.25 750.737,330.25 745.5,334C 742.246,336.747 739.58,339.914 737.5,343.5 Z"/></g>
<g><path style="opacity:1" fill="#f5f5f7" d="M 1781.5,306.5 C 1806.76,318.641 1833.09,327.475 1860.5,333C 1837.93,389.317 1815.76,445.817 1794,502.5C 1791.08,512.579 1793.91,520.412 1802.5,526C 1805.17,527.333 1807.83,528.667 1810.5,530C 1809.48,532.545 1808.31,535.045 1807,537.5C 1774.16,522.498 1740.66,509.164 1706.5,497.5C 1707.21,495.189 1708.21,493.022 1709.5,491C 1715.03,492.459 1720.69,493.126 1726.5,493C 1734.74,489.421 1740.24,483.255 1743,474.5C 1758.14,435.421 1773.47,396.421 1789,357.5C 1791.07,351.952 1792.74,346.285 1794,340.5C 1796.68,327.854 1792.01,319.187 1780,314.5C 1779.55,311.667 1780.05,309.001 1781.5,306.5 Z"/></g>
<g><path style="opacity:1" fill="#f5f5f7" d="M 487.5,338.5 C 488.822,338.33 489.989,338.663 491,339.5C 512.747,378.662 534.747,417.662 557,456.5C 557.665,421.824 574.499,398.991 607.5,388C 627.219,383.848 645.552,387.181 662.5,398C 680.638,412.135 695.138,429.301 706,449.5C 715.191,465.543 721.858,482.543 726,500.5C 731.78,551.12 710.614,584.62 662.5,601C 633.05,599.941 612.05,612.775 599.5,639.5C 596.914,640.48 594.247,640.813 591.5,640.5C 589.122,631.739 585.622,623.405 581,615.5C 540.667,544.167 500.333,472.833 460,401.5C 456.158,395.624 451.325,390.79 445.5,387C 438.435,384.658 431.601,385.158 425,388.5C 423.233,387.66 421.899,386.327 421,384.5C 420.316,383.216 420.483,382.049 421.5,381C 445.804,370.154 467.804,355.988 487.5,338.5 Z"/></g>
<g><path style="opacity:1" fill="#c8758c" d="M 737.5,343.5 C 739.5,344.167 741.5,344.833 743.5,345.5C 741.076,345.808 738.743,345.474 736.5,344.5C 736.624,343.893 736.957,343.56 737.5,343.5 Z"/></g>
<g><path style="opacity:1" fill="#ab274a" d="M 818.5,393.5 C 819.75,393.577 820.583,394.244 821,395.5C 830.306,419.945 839.472,444.445 848.5,469C 843.267,489.936 830.267,497.936 809.5,493C 797.275,483.194 791.275,470.361 791.5,454.5C 791.208,448.973 792.041,443.639 794,438.5C 800.54,425.972 807.873,413.972 816,402.5C 817.302,399.625 818.135,396.625 818.5,393.5 Z"/></g>
<g><path style="opacity:1" fill="#ab264a" d="M 588.5,417.5 C 595.701,417.26 602.368,419.093 608.5,423C 614.928,427.423 620.761,432.59 626,438.5C 644.883,462.763 660.55,489.097 673,517.5C 677.545,527.8 680.878,538.466 683,549.5C 687.638,574.086 678.138,589.919 654.5,597C 648.251,597.809 642.084,597.642 636,596.5C 612.333,554.5 588.667,512.5 565,470.5C 558.165,452.674 561.665,437.174 575.5,424C 579.572,421.153 583.906,418.986 588.5,417.5 Z"/></g>
<g><path style="opacity:1" fill="#f39dc4" d="M 816.5,428.5 C 822.472,441.631 827.805,455.131 832.5,469C 829.816,477.831 824.149,481.165 815.5,479C 807.761,469.546 804.927,458.713 807,446.5C 809.91,440.346 813.076,434.346 816.5,428.5 Z"/></g>
<g><path style="opacity:1" fill="#f49fc6" d="M 589.5,432.5 C 593.813,432.548 597.813,433.715 601.5,436C 608,441.167 613.833,447 619,453.5C 639.723,481.609 655.723,512.275 667,545.5C 669.525,555.441 668.858,565.108 665,574.5C 659.302,580.343 652.469,582.677 644.5,581.5C 622.587,542.005 600.42,502.671 578,463.5C 574.467,450.25 578.301,439.916 589.5,432.5 Z"/></g>
<g><path style="opacity:1" fill="#d395a6" d="M 1130.5,434.5 C 1131.46,436.265 1131.79,438.265 1131.5,440.5C 1130.5,440.5 1129.5,440.5 1128.5,440.5C 1129.5,440.5 1130.5,440.5 1131.5,440.5C 1131.79,438.265 1131.46,436.265 1130.5,434.5 Z"/></g>
<g><path style="opacity:1" fill="#d18fa1" d="M 1525.5,442.5 C 1525.5,445.167 1525.5,447.833 1525.5,450.5C 1523.9,450.768 1522.57,450.434 1521.5,449.5C 1522.5,449.5 1523.5,449.5 1524.5,449.5C 1524.2,446.941 1524.53,444.607 1525.5,442.5 Z"/></g>
<g><path style="opacity:1" fill="#ab2449" d="M 1257.5,469.5 C 1264.63,469.706 1266.29,472.873 1262.5,479C 1256.5,479.993 1254.33,477.493 1256,471.5C 1256.72,470.956 1257.22,470.289 1257.5,469.5 Z"/></g>
<g><path style="opacity:1" fill="#ae2b4f" d="M 1211.5,484.5 C 1213.83,484.5 1216.17,484.5 1218.5,484.5C 1218.5,488.167 1218.5,491.833 1218.5,495.5C 1223.21,495.173 1227.88,495.507 1232.5,496.5C 1228.22,497.492 1223.88,497.826 1219.5,497.5C 1219.46,512.913 1220.29,528.247 1222,543.5C 1223.25,546.381 1225.42,548.214 1228.5,549C 1240.28,549.62 1240.12,550.454 1228,551.5C 1220.2,551.703 1215.2,548.036 1213,540.5C 1212.5,526.171 1212.33,511.837 1212.5,497.5C 1206.4,497.826 1205.74,497.159 1210.5,495.5C 1211.49,491.893 1211.82,488.226 1211.5,484.5 Z"/></g>
<g><path style="opacity:1" fill="#ad294d" d="M 1420.5,486.5 C 1427.75,486.555 1429.75,489.722 1426.5,496C 1418.42,496.805 1416.42,493.638 1420.5,486.5 Z"/></g>
<g><path style="opacity:1" fill="#ae2b4f" d="M 1339.5,488.5 C 1341.83,488.5 1344.17,488.5 1346.5,488.5C 1345.73,492.452 1345.39,496.452 1345.5,500.5C 1349.89,500.757 1354.23,501.424 1358.5,502.5C 1353.9,503.016 1349.23,503.016 1344.5,502.5C 1342.22,517.759 1341.05,533.092 1341,548.5C 1344.12,554.146 1348.95,556.813 1355.5,556.5C 1345.1,559.429 1337.6,556.096 1333,546.5C 1333.66,531.436 1335.16,516.436 1337.5,501.5C 1335.71,501.785 1334.05,501.452 1332.5,500.5C 1334.34,499.77 1336.17,499.103 1338,498.5C 1338.46,495.146 1338.96,491.813 1339.5,488.5 Z"/></g>
<g><path style="opacity:1" fill="#ad294d" d="M 1045.5,491.5 C 1052.52,491.489 1054.52,494.489 1051.5,500.5C 1043.41,501.86 1041.41,498.86 1045.5,491.5 Z"/></g>
<g><path style="opacity:1" fill="#ad2a4e" d="M 1250.5,494.5 C 1253.85,494.335 1257.18,494.502 1260.5,495C 1261.33,495.833 1262.17,496.667 1263,497.5C 1263.17,514.832 1263,532.165 1262.5,549.5C 1265.57,549.183 1268.57,549.516 1271.5,550.5C 1263.83,551.833 1256.17,551.833 1248.5,550.5C 1250.69,549.779 1252.85,549.113 1255,548.5C 1255.5,531.503 1255.67,514.503 1255.5,497.5C 1253.08,497.808 1250.74,497.474 1248.5,496.5C 1249.24,495.818 1249.91,495.151 1250.5,494.5 Z"/></g>
<g><path style="opacity:1" fill="#ae2b4e" d="M 1294.5,496.5 C 1302.76,495.846 1310.76,496.846 1318.5,499.5C 1318.65,504.287 1317.98,508.954 1316.5,513.5C 1315.68,510.215 1315.18,506.882 1315,503.5C 1306.94,496.522 1299.27,496.856 1292,504.5C 1290.1,508.197 1290.1,511.864 1292,515.5C 1298.77,519.759 1305.93,523.259 1313.5,526C 1321.6,534.312 1321.27,542.312 1312.5,550C 1301.16,555.281 1290.33,554.448 1280,547.5C 1279.07,542.549 1279.73,537.882 1282,533.5C 1281.3,546.461 1287.46,552.294 1300.5,551C 1307.74,549.757 1311.41,545.424 1311.5,538C 1311.59,535.186 1310.59,532.853 1308.5,531C 1301.83,528 1295.17,525 1288.5,522C 1282.84,516.221 1282,509.721 1286,502.5C 1288.64,500.109 1291.47,498.109 1294.5,496.5 Z"/></g>
<g><path style="opacity:1" fill="#ad294d" d="M 1162.5,498.5 C 1167.18,498.334 1171.85,498.501 1176.5,499C 1181.4,500.902 1184.57,504.402 1186,509.5C 1187.2,523.172 1188.36,536.839 1189.5,550.5C 1192.57,550.183 1195.57,550.516 1198.5,551.5C 1190.86,553.35 1183.2,554.017 1175.5,553.5C 1177.71,552.365 1180.04,551.699 1182.5,551.5C 1181.38,537.464 1179.88,523.464 1178,509.5C 1174.53,501.905 1168.69,499.405 1160.5,502C 1157.12,503.441 1153.95,505.274 1151,507.5C 1151.83,523.169 1153,538.835 1154.5,554.5C 1157.25,554.187 1159.91,554.52 1162.5,555.5C 1155.19,556.712 1147.86,557.212 1140.5,557C 1142.25,555.681 1144.25,555.181 1146.5,555.5C 1145.63,538.134 1144.29,520.8 1142.5,503.5C 1139.81,503.664 1137.15,503.497 1134.5,503C 1138.63,500.934 1142.96,500.268 1147.5,501C 1148.79,502.41 1149.95,503.91 1151,505.5C 1154.81,503.016 1158.65,500.682 1162.5,498.5 Z"/></g>
<g><path style="opacity:1" fill="#ae2b4f" d="M 1102.5,505.5 C 1119.14,505.47 1127.47,513.804 1127.5,530.5C 1114.81,532.004 1102.14,533.837 1089.5,536C 1088.75,557.578 1098.75,565.244 1119.5,559C 1122.74,557.361 1126.08,556.361 1129.5,556C 1117.15,564.177 1104.15,565.511 1090.5,560C 1084.44,554.179 1081.28,547.012 1081,538.5C 1079.19,521.505 1086.35,510.505 1102.5,505.5 Z"/></g>
<g><path style="opacity:1" fill="#f39dc4" d="M 1101.5,508.5 C 1110.3,507.484 1116.14,511.15 1119,519.5C 1120.04,522.757 1120.54,526.09 1120.5,529.5C 1109.38,530.363 1098.38,532.03 1087.5,534.5C 1086.49,522.51 1091.15,513.844 1101.5,508.5 Z"/></g>
<g><path style="opacity:1" fill="#ae2b4e" d="M 1408.5,510.5 C 1412.71,510.078 1416.71,510.744 1420.5,512.5C 1420.83,514.167 1421.17,515.833 1421.5,517.5C 1418.63,533.867 1415.63,550.201 1412.5,566.5C 1415.32,566.539 1417.99,567.205 1420.5,568.5C 1419.67,568.833 1418.83,569.167 1418,569.5C 1411.25,568.52 1404.75,566.854 1398.5,564.5C 1400.74,563.526 1403.08,563.192 1405.5,563.5C 1408.18,547.621 1411.18,531.788 1414.5,516C 1414.17,515.167 1413.83,514.333 1413.5,513.5C 1411.24,513.216 1409.57,512.216 1408.5,510.5 Z"/></g>
<g><path style="opacity:1" fill="#f5f5f6" d="M 419.5,512.5 C 434.857,510.599 448.524,514.432 460.5,524C 466.699,529.864 472.532,536.031 478,542.5C 503.406,575.91 529.573,608.743 556.5,641C 561.324,643.446 565.491,642.613 569,638.5C 570.699,635.065 572.199,631.565 573.5,628C 580.043,627.732 581.877,630.565 579,636.5C 569.532,660.647 552.199,675.313 527,680.5C 518.154,679.408 510.821,675.408 505,668.5C 506.687,706.645 489.187,730.812 452.5,741C 427.739,742.03 410.239,731.197 400,708.5C 395.898,697.275 395.564,685.942 399,674.5C 402.061,667.379 405.394,660.379 409,653.5C 418,639.5 427,625.5 436,611.5C 440.017,604.294 441.35,596.627 440,588.5C 431.264,575.76 421.764,563.594 411.5,552C 396.828,540.494 382.494,540.827 368.5,553C 364.311,557.221 360.478,561.721 357,566.5C 355.241,569.608 354.408,572.941 354.5,576.5C 374.423,571.187 388.59,577.853 397,596.5C 399.168,614.044 392.335,626.544 376.5,634C 355.717,637.347 342.217,628.847 336,608.5C 335.005,596.809 337.339,585.809 343,575.5C 361.269,545.629 386.769,524.629 419.5,512.5 Z"/></g>
<g><path style="opacity:1" fill="#ad2a4e" d="M 1049.5,516.5 C 1052.65,515.959 1055.15,516.959 1057,519.5C 1060.93,535.764 1064.43,552.097 1067.5,568.5C 1069.7,568.41 1071.86,568.077 1074,567.5C 1074.83,567.833 1075.67,568.167 1076.5,568.5C 1071.34,570.529 1066,572.029 1060.5,573C 1053.1,573.904 1052.76,573.071 1059.5,570.5C 1059.83,569.667 1060.17,568.833 1060.5,568C 1056.83,552.308 1053.16,536.641 1049.5,521C 1046.9,520.719 1044.57,520.552 1042.5,520.5C 1044.77,518.873 1047.1,517.539 1049.5,516.5 Z"/></g>
<g><path style="opacity:1" fill="#ad294d" d="M 958.5,519.5 C 960.792,519.244 962.959,519.577 965,520.5C 966.667,523.833 968.333,527.167 970,530.5C 970.749,531.635 970.583,532.635 969.5,533.5C 967.474,531.295 965.808,528.795 964.5,526C 953.017,521.759 943.851,524.593 937,534.5C 935.354,541.523 936.854,547.689 941.5,553C 942.833,553.667 944.167,554.333 945.5,555C 955.167,555.333 964.833,555.667 974.5,556C 989.066,563.031 992.899,573.864 986,588.5C 974.794,599.846 961.294,604.179 945.5,601.5C 944.469,597.573 943.135,593.739 941.5,590C 942,589.5 942.5,589 943,588.5C 944.527,590.221 945.527,592.221 946,594.5C 958.988,601.405 970.321,599.405 980,588.5C 984.396,579.474 982.896,571.64 975.5,565C 973.608,564.027 971.608,563.36 969.5,563C 960.167,562.667 950.833,562.333 941.5,562C 931.184,557.112 927.35,548.945 930,537.5C 932.584,530.618 937.417,526.118 944.5,524C 949.254,522.358 953.921,520.858 958.5,519.5 Z"/></g>
<g><path style="opacity:1" fill="#ae2a4e" d="M 1443.5,518.5 C 1444.27,517.853 1445.27,517.52 1446.5,517.5C 1452.9,516.751 1456.9,519.418 1458.5,525.5C 1467.55,522.286 1476.22,523.119 1484.5,528C 1488.4,531.698 1489.9,536.198 1489,541.5C 1485.42,554.311 1481.92,567.145 1478.5,580C 1478.64,580.772 1478.98,581.439 1479.5,582C 1481.89,582.681 1484.23,583.515 1486.5,584.5C 1485.67,584.833 1484.83,585.167 1484,585.5C 1478.28,583.622 1472.45,582.122 1466.5,581C 1463.97,580.002 1463.97,579.169 1466.5,578.5C 1468.13,579.046 1469.8,579.38 1471.5,579.5C 1475.07,565.727 1478.4,551.894 1481.5,538C 1481.65,531.621 1478.65,527.621 1472.5,526C 1467.03,525.149 1461.7,525.649 1456.5,527.5C 1452.37,542.135 1448.37,556.801 1444.5,571.5C 1446.55,573.196 1448.88,574.529 1451.5,575.5C 1450.83,575.833 1450.17,576.167 1449.5,576.5C 1442.64,575.068 1435.98,573.068 1429.5,570.5C 1430.33,570.167 1431.17,569.833 1432,569.5C 1433.82,569.943 1435.66,570.277 1437.5,570.5C 1441.5,553.833 1445.5,537.167 1449.5,520.5C 1447.3,520.396 1445.3,519.73 1443.5,518.5 Z"/></g>
<g><path style="opacity:1" fill="#af2c4f" d="M 1016.5,524.5 C 1020.85,524.334 1025.18,524.501 1029.5,525C 1032.81,529.742 1034.14,534.909 1033.5,540.5C 1031.65,536.942 1029.98,533.275 1028.5,529.5C 1011.06,524.387 1001.72,530.887 1000.5,549C 1001.77,580.13 1015.77,587.964 1042.5,572.5C 1042.83,572.833 1043.17,573.167 1043.5,573.5C 1033.05,581.53 1021.38,584.364 1008.5,582C 998.119,575.074 993.119,565.241 993.5,552.5C 994.561,537.699 1002.23,528.366 1016.5,524.5 Z"/></g>
<g><path style="opacity:1" fill="#ad294d" d="M 1554.5,525.5 C 1566.92,529.587 1578.92,534.754 1590.5,541C 1596.17,546.319 1598,552.819 1596,560.5C 1592.72,576.044 1583.22,583.211 1567.5,582C 1562.12,580.092 1556.78,578.426 1551.5,577C 1547.62,585.093 1544.29,593.426 1541.5,602C 1543.29,603.734 1545.29,605.234 1547.5,606.5C 1540.29,605.259 1533.29,602.759 1526.5,599C 1529.16,598.825 1531.82,598.992 1534.5,599.5C 1543.06,576.663 1551.72,553.83 1560.5,531C 1558.2,529.374 1556.2,527.541 1554.5,525.5 Z"/></g>
<g><path style="opacity:1" fill="#f49ec5" d="M 1568.5,532.5 C 1575.96,534.481 1582.46,538.147 1588,543.5C 1590.96,556.623 1587.46,567.789 1577.5,577C 1570.09,580.187 1562.76,579.854 1555.5,576C 1554.09,575.632 1553.09,574.799 1552.5,573.5C 1557.84,559.805 1563.17,546.138 1568.5,532.5 Z"/></g>
<g><path style="opacity:1" fill="#ab264a" d="M 225.5,542.5 C 235.219,550.366 244.552,558.7 253.5,567.5C 248.143,574.212 243.81,581.545 240.5,589.5C 242.234,593.966 244.734,597.966 248,601.5C 311.868,659.703 376.035,717.537 440.5,775C 430.433,784.398 421.1,794.398 412.5,805C 350.108,802.621 287.774,798.955 225.5,794C 207.17,792.875 188.836,792.208 170.5,792C 195.833,815 221.167,838 246.5,861C 255.259,869.096 264.593,876.429 274.5,883C 279.292,885.032 283.959,884.699 288.5,882C 295.627,876.541 302.461,870.708 309,864.5C 318.167,873 327.333,881.5 336.5,890C 316.959,908.54 298.459,928.04 281,948.5C 275.995,955.664 270.828,962.664 265.5,969.5C 255.722,961.892 246.389,953.726 237.5,945C 242.63,938.054 246.63,930.554 249.5,922.5C 249.423,920.701 248.923,919.034 248,917.5C 245.333,914.167 242.667,910.833 240,907.5C 190.45,862.315 140.616,817.482 90.5,773C 87.672,770.752 84.672,768.752 81.5,767C 79.212,766.582 77.212,767.249 75.5,769C 69.9575,774.375 64.6242,779.875 59.5,785.5C 50.017,777.185 40.6837,768.685 31.5,760C 52.9771,739.197 72.9771,717.197 91.5,694C 161.163,696.762 230.829,699.428 300.5,702C 277.689,681.099 254.689,660.432 231.5,640C 225.844,635.504 219.844,631.504 213.5,628C 211.167,627.333 208.833,627.333 206.5,628C 202.664,630.084 198.997,632.417 195.5,635C 191.301,639.534 186.801,643.701 182,647.5C 172.508,639.508 163.342,631.174 154.5,622.5C 180.389,597.623 204.055,570.956 225.5,542.5 Z"/></g>
<g><path style="opacity:1" fill="#ad294d" d="M 1622.5,551.5 C 1629.64,551.62 1631.31,554.787 1627.5,561C 1621.66,562.359 1619.16,560.192 1620,554.5C 1620.7,553.309 1621.53,552.309 1622.5,551.5 Z"/></g>
<g><path style="opacity:1" fill="#f5f5f6" d="M 331.5,719.5 C 335.019,720.808 338.685,720.808 342.5,719.5C 342.376,718.893 342.043,718.56 341.5,718.5C 310.01,690.575 278.676,662.408 247.5,634C 240.066,627.231 232.066,621.231 223.5,616C 213.101,610.811 203.101,611.478 193.5,618C 189.667,621.167 185.833,624.333 182,627.5C 180.22,625.707 178.387,624.04 176.5,622.5C 194.224,603.613 211.39,584.279 228,564.5C 229.78,566.293 231.613,567.96 233.5,569.5C 228.07,576.622 225.57,584.622 226,593.5C 227.973,599.449 230.973,604.783 235,609.5C 295.718,665.388 356.885,720.721 418.5,775.5C 413.981,780.184 409.648,785.018 405.5,790C 318.795,785.581 232.128,780.248 145.5,774C 139.5,773.333 133.5,773.333 127.5,774C 164.132,806.296 200.465,838.963 236.5,872C 245.923,880.76 255.923,888.76 266.5,896C 277.2,901.164 287.533,900.498 297.5,894C 301.333,890.833 305.167,887.667 309,884.5C 310.833,886.333 312.667,888.167 314.5,890C 296.592,908.571 279.425,927.737 263,947.5C 260.487,946.321 258.654,944.487 257.5,942C 265.655,931.313 266.488,920.146 260,908.5C 257.667,905.5 255.333,902.5 253,899.5C 242.5,889.667 232,879.833 221.5,870C 178.464,831.295 135.13,792.962 91.5,755C 84.1378,750.402 76.8045,750.402 69.5,755C 65.6858,757.98 62.0191,761.146 58.5,764.5C 56.5,763.167 54.8333,761.5 53.5,759.5C 69.4276,743.411 84.4276,726.577 98.5,709C 176.153,712.466 253.819,715.966 331.5,719.5 Z"/></g>
<g><path style="opacity:1" fill="#ac284c" d="M 1605.5,571.5 C 1609.3,572.432 1612.96,573.766 1616.5,575.5C 1616.83,576.5 1617.17,577.5 1617.5,578.5C 1611.26,594.154 1604.59,609.654 1597.5,625C 1598.78,627.071 1600.61,628.571 1603,629.5C 1603.67,630.167 1603.67,630.833 1603,631.5C 1596.42,628.461 1589.92,625.295 1583.5,622C 1585.94,622.053 1588.27,621.887 1590.5,621.5C 1597.69,606.585 1604.69,591.585 1611.5,576.5C 1608.99,575.272 1606.99,573.605 1605.5,571.5 Z"/></g>
<g><path style="opacity:1" fill="#ae2a4e" d="M 872.5,577.5 C 885.765,576.133 894.432,581.799 898.5,594.5C 886.566,600.802 874.566,607.135 862.5,613.5C 868.944,632.067 880.611,636.567 897.5,627C 900.646,624.688 903.646,622.188 906.5,619.5C 906.833,619.833 907.167,620.167 907.5,620.5C 896.796,633.459 883.462,637.626 867.5,633C 853.84,620.863 850.34,606.363 857,589.5C 861.02,583.919 866.186,579.919 872.5,577.5 Z"/></g>
<g><path style="opacity:1" fill="#f49ec5" d="M 871.5,580.5 C 881.529,580.846 888.196,585.846 891.5,595.5C 882.056,600.723 872.389,605.723 862.5,610.5C 856.257,597.667 859.257,587.667 871.5,580.5 Z"/></g>
<g><path style="opacity:1" fill="#ab274a" d="M 447.5,597.5 C 464.221,617.915 480.721,638.581 497,659.5C 499.779,677.131 492.946,688.964 476.5,695C 469.612,696.344 463.278,695.01 457.5,691C 442.931,679.286 436.098,664.119 437,645.5C 439.374,634.003 442.374,622.67 446,611.5C 446.994,606.882 447.494,602.215 447.5,597.5 Z"/></g>
<g><path style="opacity:1" fill="#ae2a4e" d="M 1637.5,587.5 C 1642.15,587.23 1646.32,588.897 1650,592.5C 1650.72,594.112 1650.55,595.612 1649.5,597C 1659.11,596.691 1667.61,599.524 1675,605.5C 1679.29,610.884 1679.62,616.551 1676,622.5C 1669.58,633.673 1663.41,645.007 1657.5,656.5C 1659.23,658.226 1661.23,659.559 1663.5,660.5C 1664.83,661.167 1664.83,661.833 1663.5,662.5C 1656.68,659.255 1650.01,655.755 1643.5,652C 1646.41,652.284 1649.24,652.117 1652,651.5C 1657.67,640.833 1663.33,630.167 1669,619.5C 1673.57,609.083 1670.4,602.583 1659.5,600C 1655.46,599.173 1651.46,599.34 1647.5,600.5C 1640.75,613.659 1633.75,626.659 1626.5,639.5C 1628.67,641.493 1631,643.327 1633.5,645C 1625.95,643.058 1618.95,639.725 1612.5,635C 1614.78,634.709 1616.95,635.209 1619,636.5C 1627.54,621.92 1635.71,607.086 1643.5,592C 1641.92,589.924 1639.92,588.424 1637.5,587.5 Z"/></g>
<g><path style="opacity:1" fill="#ad2a4e" d="M 1717.5,599.5 C 1721.74,598.832 1725.57,600.166 1729,603.5C 1729.67,605.5 1729.67,607.5 1729,609.5C 1720.17,623 1711.33,636.5 1702.5,650C 1712.14,648.289 1721.47,645.456 1730.5,641.5C 1729.52,640.019 1728.35,638.685 1727,637.5C 1726.33,636.833 1726.33,636.167 1727,635.5C 1733.41,639.957 1739.91,644.291 1746.5,648.5C 1746.17,648.833 1745.83,649.167 1745.5,649.5C 1741.67,647.754 1738.01,645.754 1734.5,643.5C 1725.7,646.616 1716.7,648.95 1707.5,650.5C 1709.75,664.141 1711.91,677.808 1714,691.5C 1715.38,693.213 1717.04,694.547 1719,695.5C 1719.69,696.332 1719.52,696.998 1718.5,697.5C 1714.58,694.957 1710.75,692.29 1707,689.5C 1705.17,676.859 1703.5,664.192 1702,651.5C 1696.97,659.033 1692.14,666.7 1687.5,674.5C 1689.46,676.156 1691.46,677.823 1693.5,679.5C 1693.17,679.833 1692.83,680.167 1692.5,680.5C 1686.12,676.983 1680.12,672.983 1674.5,668.5C 1674.67,668.167 1674.83,667.833 1675,667.5C 1677.75,670.034 1680.41,670.034 1683,667.5C 1696.3,646.033 1709.8,624.7 1723.5,603.5C 1721.75,601.748 1719.75,600.415 1717.5,599.5 Z"/></g>
<g><path style="opacity:1" fill="#ad294d" d="M 776.5,596.5 C 779.044,596.104 781.211,596.771 783,598.5C 788,607.167 793,615.833 798,624.5C 801.893,616.274 808.059,610.441 816.5,607C 824.975,604.821 831.142,607.654 835,615.5C 841.081,626.663 847.414,637.663 854,648.5C 856.333,647.167 858.667,645.833 861,644.5C 861.667,645.167 861.667,645.833 861,646.5C 854.751,650.041 848.584,653.707 842.5,657.5C 842.167,657.167 841.833,656.833 841.5,656.5C 844.56,654.981 846.06,652.648 846,649.5C 839.748,639.33 833.748,628.997 828,618.5C 820.077,609.235 812.077,609.235 804,618.5C 801.485,621.506 800.151,624.84 800,628.5C 807.333,641.167 814.667,653.833 822,666.5C 824.493,664.328 827.326,663.494 830.5,664C 824.082,667.959 817.582,671.793 811,675.5C 810.333,674.833 810.333,674.167 811,673.5C 813.628,672.244 814.628,670.244 814,667.5C 801.492,645.142 788.492,623.142 775,601.5C 772.95,602.791 770.783,603.291 768.5,603C 771.355,600.969 774.022,598.803 776.5,596.5 Z"/></g>
<g><path style="opacity:1" fill="#f39dc4" d="M 455.5,631.5 C 464.09,642.601 472.923,653.601 482,664.5C 483.515,671.624 481.015,676.791 474.5,680C 472.167,680.667 469.833,680.667 467.5,680C 451.792,666.745 447.792,650.579 455.5,631.5 Z"/></g>
<g><path style="opacity:1" fill="#ad294d" d="M 748.5,634.5 C 749.675,634.281 750.675,634.614 751.5,635.5C 752.86,638.228 754.693,640.561 757,642.5C 760.989,640.672 764.655,638.339 768,635.5C 768.749,636.635 768.583,637.635 767.5,638.5C 764.19,640.482 761.19,642.815 758.5,645.5C 766.55,658.436 775.217,670.936 784.5,683C 785.873,683.875 787.373,684.375 789,684.5C 793.456,683.335 797.622,681.835 801.5,680C 794.504,688.623 786.17,690.456 776.5,685.5C 768.253,674.007 760.253,662.34 752.5,650.5C 751.284,649.904 749.951,649.737 748.5,650C 749.357,649.311 750.023,648.478 750.5,647.5C 748.961,644.254 747.294,641.088 745.5,638C 746.71,636.961 747.71,635.794 748.5,634.5 Z"/></g>
<g><path style="opacity:1" fill="#d190a2" d="M 341.5,718.5 C 342.043,718.56 342.376,718.893 342.5,719.5C 338.685,720.808 335.019,720.808 331.5,719.5C 335.042,719.813 338.375,719.479 341.5,718.5 Z"/></g>
</svg>
